<?xml version="1.0" encoding="UTF-8"?>
<!-- Created with Inkscape (http://www.inkscape.org/) -->
<svg width="11in" height="8.5in" version="1.1" xmlns="http://www.w3.org/2000/svg" xmlns:cc="http://creativecommons.org/ns#" xmlns:dc="http://purl.org/dc/elements/1.1/" xmlns:osb="http://www.openswatchbook.org/uri/2009/osb" xmlns:rdf="http://www.w3.org/1999/02/22-rdf-syntax-ns#" xmlns:xlink="http://www.w3.org/1999/xlink">
 <metadata>
  <rdf:RDF>
   <cc:Work rdf:about="">
    <dc:format>image/svg+xml</dc:format>
    <dc:type rdf:resource="http://purl.org/dc/dcmitype/StillImage"/>
    <dc:title/>
   </cc:Work>
  </rdf:RDF>
 </metadata>
 <g transform="translate(0 -236.36)">
  <path d="m370.45 976.94-17.224-29.849h-68.911l-34.454-59.696h-68.922l-36.937-63.992 34.451-59.667-17.225-29.839-17.225-29.839 34.45-59.677-17.226-29.836-17.226-29.837 34.452-59.675-17.139-29.688c-9.4264-16.328-17.139-29.822-17.139-29.986 0-0.16431 8.2749-14.634 18.389-32.156l18.389-31.857 68.91-0.0016 34.455-59.702 68.91-4e-3 34.455-59.698 73.93-4e-3 34.431 59.693h63.912l34.431-59.693 73.93 4e-3 34.455 59.698 68.91 4e-3 34.455 59.702 68.91 0.0015 18.389 31.857c10.114 17.521 18.389 31.991 18.389 32.156s-7.7125 13.658-17.139 29.986l-17.139 29.688 34.452 59.675-34.452 59.673 34.45 59.677-34.45 59.678 17.225 29.834 17.225 29.834-18.469 31.996-18.469 31.996h-68.922l-17.227 29.848-17.227 29.848h-68.911l-34.448 59.698h-73.951l-34.417-59.69h-63.912l-34.417 59.69h-73.951zm86.209 20.841c0.20165-0.2502 31.446-54.285 31.747-54.904 0.0352-0.072-7.1166-12.559-15.893-27.748l-15.957-27.616h-63.819l-15.872 27.485c-8.7297 15.117-15.874 27.618-15.877 27.781-4e-3 0.2377 30.1 52.629 31.453 54.74l0.37934 0.5918h31.786c25.112 0 31.842-0.069 32.051-0.32881zm222.5-27.255c8.7179-15.099 15.849-27.585 15.846-27.748 0-0.1627-7.147-12.664-15.877-27.781l-15.872-27.485h-63.819l-15.957 27.616c-8.7762 15.189-15.928 27.676-15.893 27.748 0.30194 0.6211 31.546 54.654 31.748 54.905 0.21104 0.2618 6.8346 0.316 32.119 0.263l31.853-0.067zm-310-59.856 15.939-27.604-2.6687-4.6154c-1.4678-2.5385-8.6293-14.942-15.914-27.563l-13.246-22.948h-63.956l-15.649 27.098c-8.6071 14.904-15.748 27.36-15.868 27.679-0.18169 0.4823 2.4253 5.1623 15.341 27.54 8.5579 14.827 15.731 27.226 15.941 27.552l0.38095 0.5928 63.762-0.134 15.939-27.604zm206.12 1.0393c8.4439-14.61 15.599-27.056 15.901-27.657l0.54864-1.0929-31.757-55.02h-63.946l-15.873 27.501c-14.24 24.671-15.844 27.564-15.591 28.119 0.26483 0.5812 30.447 52.978 31.252 54.255l0.37398 0.5928 63.739-0.134zm207.27-0.92049c13.177-22.82 15.834-27.584 15.652-28.066-0.1204-0.3195-7.2611-12.775-15.868-27.679l-15.649-27.098h-63.958l-15.89 27.535c-8.7393 15.144-15.87 27.601-15.845 27.682 0.057 0.1882 31.034 53.864 31.544 54.658l0.3809 0.59281 63.762-0.134 15.871-27.485zm-516.8-59.646c8.736-15.148 15.897-27.612 15.912-27.697 0.0158-0.085-7.1224-12.542-15.863-27.682l-15.891-27.528h-63.961l-15.843 27.447c-8.7136 15.096-15.843 27.568-15.843 27.715 0 0.2201 30.229 52.796 31.457 54.712l0.37934 0.5918 63.769-0.02 15.884-27.543zm206.69-0.023c8.7171-15.098 15.849-27.575 15.849-27.728 0-0.1525-7.1296-12.625-15.843-27.717l-15.843-27.44h-63.919l-15.875 27.512c-14.077 24.395-15.844 27.58-15.6 28.116 0.26042 0.5715 30.453 52.984 31.246 54.24l0.37398 0.5928 63.762-0.134 15.849-27.45zm206.21 0.8858c8.4439-14.61 15.596-27.05 15.894-27.643l0.5418-1.0788-15.88-27.52-15.88-27.52h-63.919l-15.843 27.44c-8.7139 15.092-15.843 27.564-15.843 27.717 0 0.2273 30.213 52.782 31.457 54.719l0.38079 0.5928 63.739-0.134 15.352-26.564zm207.25-0.8878c8.7179-15.099 15.851-27.573 15.851-27.72 0-0.1474-7.1293-12.619-15.843-27.715l-15.843-27.447h-63.962l-15.829 27.419c-8.7058 15.08-15.844 27.538-15.863 27.682-0.019 0.14469 7.1137 12.658 15.85 27.807l15.884 27.544 63.904-0.118zm-516.88-59.493c8.6794-15.046 15.82-27.533 15.868-27.749 0.0477-0.2159-7.0517-12.757-15.776-27.868l-15.863-27.476-63.921 0.02-15.781 27.39c-8.6795 15.064-15.774 27.585-15.765 27.824 0.0119 0.3282 29.398 51.605 31.316 54.644l0.37344 0.5918 63.769-0.02 15.781-27.356zm206.73-0.033c8.6794-15.06 15.818-27.535 15.863-27.722 0.0453-0.1876-7.056-12.714-15.781-27.837l-15.863-27.496h-63.912l-15.863 27.496c-8.7248 15.123-15.826 27.649-15.781 27.837 0.0453 0.18769 7.1838 12.663 15.863 27.722l15.781 27.381h63.912zm206.79-0.2114c8.7264-15.117 15.834-27.623 15.795-27.792-0.039-0.169-7.1725-12.622-15.852-27.674l-15.781-27.367-63.921-0.02-15.863 27.476c-8.7247 15.112-15.824 27.653-15.776 27.868 0.048 0.2158 7.1882 12.703 15.868 27.75l15.781 27.357 63.884-0.118 15.866-27.485zm-516.81-59.548c8.7156-15.1 15.847-27.607 15.847-27.793s-7.129-12.684-15.842-27.775l-15.842-27.438h-63.921l-15.781 27.356c-8.6794 15.046-15.781 27.578-15.781 27.849 0 0.2711 7.1014 12.81 15.781 27.865l15.781 27.372 63.912 0.02 15.847-27.455zm206.66 0.087c8.6794-15.047 15.818-27.525 15.863-27.728 0.0454-0.20299-7.056-12.741-15.781-27.863l-15.863-27.494-31.956 0.01h-31.956l-15.781 27.376c-8.6794 15.057-15.781 27.575-15.781 27.819s7.1014 12.77 15.781 27.837l15.781 27.394h31.956l31.956 0.01 15.781-27.359zm206.73-0.044c8.6794-15.066 15.781-27.593 15.781-27.837s-7.1014-12.762-15.781-27.819l-15.781-27.376h-31.956l-31.956-0.01-15.863 27.494c-8.7249 15.121-15.826 27.66-15.781 27.863 0.0454 0.203 7.184 12.681 15.863 27.728l15.781 27.359 31.956-0.01h31.956l15.781-27.394zm206.73 0.03c8.6794-15.054 15.781-27.594 15.781-27.865 0-0.2711-7.1014-12.803-15.781-27.849l-15.781-27.356h-63.921l-15.842 27.438c-8.7132 15.091-15.842 27.59-15.842 27.775s7.1309 12.692 15.846 27.793l15.847 27.455 63.912-0.02 15.781-27.372zm-516.72-59.84c13.61-23.578 15.851-27.606 15.649-28.125-0.12943-0.33349-7.2775-12.802-15.885-27.709l-15.649-27.102-63.904 0.126-15.859 27.475c-8.7225 15.112-15.826 27.612-15.785 27.778s7.1756 12.622 15.855 27.68l15.781 27.378 63.912 0.02 15.885-27.519zm206.62 0.14761c8.6794-15.05 15.781-27.577 15.781-27.838s-7.1014-12.796-15.781-27.855l-15.781-27.38h-63.912l-15.781 27.38c-8.6794 15.059-15.781 27.594-15.781 27.855s7.1014 12.788 15.781 27.838l15.781 27.363h63.912zm206.73-0.025c8.6794-15.058 15.814-27.514 15.855-27.68 0.041-0.1661-7.0625-12.666-15.785-27.778l-15.859-27.476-63.904-0.126-15.649 27.102c-8.6071 14.906-15.755 27.375-15.885 27.709-0.2016 0.5195 2.0392 4.5468 15.649 28.125l15.885 27.519 63.912-0.02 15.781-27.378zm-516.68-59.85c8.7462-15.151 15.868-27.652 15.825-27.781-0.0422-0.1283-7.2027-12.585-15.912-27.681l-15.836-27.447-63.912 0.02-15.781 27.371c-8.6794 15.054-15.818 27.531-15.864 27.726-0.0455 0.1951 7.0558 12.727 15.781 27.849l15.864 27.494h63.933l15.902-27.547zm206.67 0.056c8.7257-15.118 15.827-27.651 15.781-27.851-0.0463-0.2002-7.1855-12.68-15.865-27.734l-15.781-27.37-63.904 0.112-15.872 27.485c-13.061 22.617-15.833 27.586-15.654 28.053 0.11995 0.3126 7.2603 12.767 15.867 27.676l15.649 27.108h63.912l15.865-27.487zm206.51 0.3716c8.6071-14.909 15.748-27.363 15.868-27.676 0.18-0.4679-2.5849-5.423-15.654-28.053l-15.872-27.485-63.904-0.112-15.781 27.37c-8.6794 15.053-15.819 27.534-15.865 27.734-0.0463 0.2002 7.0551 12.733 15.781 27.851l15.865 27.487h63.912l15.649-27.108zm206.94-0.37841c8.725-15.122 15.826-27.654 15.781-27.849-0.045-0.1951-7.1842-12.672-15.864-27.726l-15.781-27.371-63.912-0.02-15.836 27.447c-8.7097 15.096-15.87 27.552-15.912 27.681-0.042 0.1283 7.0793 12.63 15.826 27.781l15.902 27.547h63.933l15.864-27.494zm-516.9-59.493c8.6687-15.008 15.766-27.535 15.771-27.837 5e-3 -0.3021-7.0916-12.873-15.771-27.936l-15.781-27.386-63.87 0.112-15.871 27.485c-8.729 15.117-15.84 27.628-15.802 27.804 0.0378 0.1752 7.1701 12.629 15.85 27.676l15.781 27.357 63.932 0.02 15.761-27.288zm206.79-0.1696c8.7156-15.101 15.847-27.569 15.847-27.706s-7.1328-12.606-15.851-27.71l-15.851-27.461h-63.896l-15.851 27.461c-8.7179 15.104-15.851 27.573-15.851 27.71s7.131 12.605 15.847 27.706l15.847 27.457h63.912zm206.66 0.087c8.6794-15.046 15.812-27.501 15.85-27.676 0.038-0.1752-7.0732-12.687-15.802-27.804l-15.871-27.485-63.87-0.112-15.781 27.387c-8.6794 15.063-15.776 27.634-15.771 27.936 0 0.3022 7.1023 12.829 15.771 27.837l15.761 27.288 63.932-0.02 15.781-27.357zm-516.72-59.753c8.7065-15.081 15.838-27.538 15.848-27.682 0.01-0.1447-7.1258-12.656-15.857-27.804l-15.874-27.541-63.893 0.112-15.721 27.222c-8.6468 14.972-15.792 27.434-15.877 27.693-0.10637 0.3209 4.8881 9.2098 15.702 27.945l15.858 27.475h63.985zm206.61 0.154c8.6577-14.996 15.79-27.453 15.851-27.684s-7.0323-12.786-15.761-27.902l-15.871-27.484h-63.846l-15.869 27.485c-8.7278 15.117-15.869 27.585-15.87 27.708-5.2e-4 0.1228 7.1299 12.58 15.846 27.682l15.847 27.459 63.932 5e-4zm206.81-0.194c8.7157-15.102 15.846-27.559 15.845-27.682 0-0.1228-7.1412-12.592-15.868-27.708l-15.866-27.485h-63.85l-15.871 27.484c-8.7288 15.116-15.821 27.672-15.761 27.902 0.0602 0.2302 7.193 12.688 15.851 27.684l15.741 27.265 63.932-6e-4 15.846-27.458zm206.76-0.015c10.814-18.735 15.808-27.624 15.702-27.945-0.086-0.2588-7.2306-12.72-15.877-27.692l-15.721-27.222-63.893-0.112-15.874 27.541c-8.7308 15.148-15.866 27.66-15.857 27.804 0.01 0.1447 7.1411 12.602 15.848 27.682l15.83 27.419h63.985l15.858-27.475zm-516.99-59.321c8.6553-14.972 15.836-27.4 15.957-27.616 0.15739-0.2816-4.3442-8.2954-15.735-28.011l-15.955-27.616h-63.875l-15.72 27.222c-8.6462 14.972-15.789 27.429-15.872 27.681-0.10113 0.3058 5.0122 9.4128 15.284 27.222 8.4899 14.719 15.668 27.148 15.952 27.618l0.51566 0.85591 63.712-0.134zm206.84-0.2631c8.7284-15.117 15.87-27.603 15.87-27.748s-7.1394-12.631-15.866-27.748l-15.866-27.485h-63.828l-15.874 27.485c-8.7306 15.117-15.827 27.677-15.769 27.912 0.0866 0.3546 27.981 48.876 30.865 53.689l0.9069 1.5134 63.691-0.134zm206.71 0c8.7323-15.117 15.881-27.61 15.886-27.763 0-0.1529-7.1253-12.639-15.845-27.748l-15.854-27.47h-63.876l-31.916 55.233 0.472 0.789c0.2597 0.434 7.3 12.625 15.645 27.09 8.3453 14.466 15.342 26.568 15.548 26.894l0.3752 0.5929 63.688-0.134zm-310.03-59.704c8.7389-15.117 15.892-27.603 15.895-27.748 6e-3 -0.25106-31.15-54.352-31.695-55.037-0.20825-0.26182-6.8287-0.31604-32.111-0.26301l-31.849 0.0668-15.867 27.485c-8.7266 15.117-15.818 27.673-15.759 27.904 0.0903 0.35278 28.146 49.152 30.872 53.697l0.90753 1.5134 63.717-0.134zm206.68 0c8.7272-15.117 15.869-27.61 15.87-27.762 0-0.15262-7.1321-12.639-15.852-27.748l-15.855-27.47-31.849-0.0668c-25.282-0.053-31.903 1e-3 -32.111 0.26301-0.54462 0.68462-31.701 54.786-31.695 55.037 5e-3 0.21319 30.237 52.734 31.529 54.774l0.37551 0.5929 63.719-0.134z" stroke-width=".26301"/>
  <g transform="translate(1256.8 297.16)">
   <ellipse cx="48" cy="48" rx="47.33" ry="47.342" fill="#fff" stroke="#000" stroke-width="1.3149"/>
   <ellipse cx="48" cy="48" rx="26.294" ry="26.301"/>
   <ellipse cx="48" cy="48" rx="23.008" ry="23.013" fill="#fff"/>
   <ellipse cx="48" cy="48" rx="16.434" ry="16.438"/>
  </g>
  <g transform="translate(1360 353.61)">
   <ellipse cx="48" cy="48" rx="47.33" ry="47.342" fill="#fff" stroke="#000" stroke-width="1.3149"/>
   <ellipse cx="48" cy="48" rx="26.294" ry="26.301"/>
   <ellipse cx="48" cy="48" rx="23.008" ry="23.013" fill="#fff"/>
   <ellipse cx="48" cy="48" rx="16.434" ry="16.438"/>
  </g>
  <g transform="translate(1256.8 417.6)">
   <ellipse cx="48" cy="48" rx="47.33" ry="47.342" fill="#fff" stroke="#000" stroke-width="1.3149"/>
   <ellipse cx="48" cy="48" rx="26.294" ry="26.301"/>
   <ellipse cx="48" cy="48" rx="23.008" ry="23.013" fill="#fff"/>
   <ellipse cx="48" cy="48" rx="16.434" ry="16.438"/>
  </g>
  <g transform="translate(1462.3 297.16)">
   <ellipse cx="48" cy="48" rx="47.33" ry="47.342" fill="#fff" stroke="#000" stroke-width="1.3149"/>
   <ellipse cx="48" cy="48" rx="26.294" ry="26.301"/>
   <ellipse cx="48" cy="48" rx="23.008" ry="23.013" fill="#fff"/>
   <ellipse cx="48" cy="48" rx="16.434" ry="16.438"/>
  </g>
  <g transform="translate(1566.5 353.61)">
   <ellipse cx="48" cy="48" rx="47.33" ry="47.342" fill="#fff" stroke="#000" stroke-width="1.3149"/>
   <ellipse cx="48" cy="48" rx="26.294" ry="26.301"/>
   <ellipse cx="48" cy="48" rx="23.008" ry="23.013" fill="#fff"/>
   <ellipse cx="48" cy="48" rx="16.434" ry="16.438"/>
  </g>
  <g transform="translate(1151.8 353.61)">
   <ellipse cx="48" cy="48" rx="47.33" ry="47.342" fill="#fff" stroke="#000" stroke-width="1.3149"/>
   <ellipse cx="48" cy="48" rx="26.294" ry="26.301"/>
   <ellipse cx="48" cy="48" rx="23.008" ry="23.013" fill="#fff"/>
   <ellipse cx="48" cy="48" rx="16.434" ry="16.438"/>
  </g>
  <g transform="translate(1463.4 417.6)">
   <ellipse cx="48" cy="48" rx="47.33" ry="47.342" fill="#fff" stroke="#000" stroke-width="1.3149"/>
   <ellipse cx="48" cy="48" rx="26.294" ry="26.301"/>
   <ellipse cx="48" cy="48" rx="23.008" ry="23.013" fill="#fff"/>
   <ellipse cx="48" cy="48" rx="16.434" ry="16.438"/>
  </g>
  <g transform="translate(1670 417.6)">
   <ellipse cx="48" cy="48" rx="47.33" ry="47.342" fill="#fff" stroke="#000" stroke-width="1.3149"/>
   <ellipse cx="48" cy="48" rx="26.294" ry="26.301"/>
   <ellipse cx="48" cy="48" rx="23.008" ry="23.013" fill="#fff"/>
   <ellipse cx="48" cy="48" rx="16.434" ry="16.438"/>
  </g>
  <g transform="translate(1151.8 476.36)">
   <ellipse cx="48" cy="48" rx="47.33" ry="47.342" fill="#fff" stroke="#000" stroke-width="1.3149"/>
   <ellipse cx="48" cy="48" rx="26.294" ry="26.301"/>
   <ellipse cx="48" cy="48" rx="23.008" ry="23.013" fill="#fff"/>
   <ellipse cx="48" cy="48" rx="16.434" ry="16.438"/>
  </g>
  <g transform="translate(1360 476.36)">
   <ellipse cx="48" cy="48" rx="47.33" ry="47.342" fill="#fff" stroke="#000" stroke-width="1.3149"/>
   <ellipse cx="48" cy="48" rx="26.294" ry="26.301"/>
   <ellipse cx="48" cy="48" rx="23.008" ry="23.013" fill="#fff"/>
   <ellipse cx="48" cy="48" rx="16.434" ry="16.438"/>
  </g>
  <g transform="translate(1566.5 476.36)">
   <ellipse cx="48" cy="48" rx="47.33" ry="47.342" fill="#fff" stroke="#000" stroke-width="1.3149"/>
   <ellipse cx="48" cy="48" rx="26.294" ry="26.301"/>
   <ellipse cx="48" cy="48" rx="23.008" ry="23.013" fill="#fff"/>
   <ellipse cx="48" cy="48" rx="16.434" ry="16.438"/>
  </g>
  <g transform="translate(376.77 774.46)">
   <ellipse cx="48" cy="48" rx="47.33" ry="47.342" fill="#666" stroke="#000" stroke-width="1.3149"/>
   <ellipse cx="48" cy="48" rx="26.294" ry="26.301" fill="#fff"/>
   <ellipse cx="48" cy="48" rx="23.008" ry="23.013" fill="#666"/>
   <ellipse cx="48" cy="48" rx="16.434" ry="16.438" fill="#fff"/>
  </g>
  <g transform="translate(583.38 774.46)">
   <ellipse cx="48" cy="48" rx="47.33" ry="47.342" fill="#666" stroke="#000" stroke-width="1.3149"/>
   <ellipse cx="48" cy="48" rx="26.294" ry="26.301" fill="#fff"/>
   <ellipse cx="48" cy="48" rx="23.008" ry="23.013" fill="#666"/>
   <ellipse cx="48" cy="48" rx="16.434" ry="16.438" fill="#fff"/>
  </g>
  <g transform="translate(170.16 774.46)">
   <ellipse cx="48" cy="48" rx="47.33" ry="47.342" fill="#666" stroke="#000" stroke-width="1.3149"/>
   <ellipse cx="48" cy="48" rx="26.294" ry="26.301" fill="#fff"/>
   <ellipse cx="48" cy="48" rx="23.008" ry="23.013" fill="#666"/>
   <ellipse cx="48" cy="48" rx="16.434" ry="16.438" fill="#fff"/>
  </g>
  <g transform="translate(271.84 714.37)">
   <ellipse cx="48" cy="48" rx="47.33" ry="47.342" fill="#666" stroke="#000" stroke-width="1.3149"/>
   <ellipse cx="48" cy="48" rx="26.294" ry="26.301" fill="#fff"/>
   <ellipse cx="48" cy="48" rx="23.008" ry="23.013" fill="#666"/>
   <ellipse cx="48" cy="48" rx="16.434" ry="16.438" fill="#fff"/>
  </g>
  <g transform="translate(479.18 714.37)">
   <ellipse cx="48" cy="48" rx="47.33" ry="47.342" fill="#666" stroke="#000" stroke-width="1.3149"/>
   <ellipse cx="48" cy="48" rx="26.294" ry="26.301" fill="#fff"/>
   <ellipse cx="48" cy="48" rx="23.008" ry="23.013" fill="#666"/>
   <ellipse cx="48" cy="48" rx="16.434" ry="16.438" fill="#fff"/>
  </g>
  <g transform="translate(686.52 714.37)">
   <ellipse cx="48" cy="48" rx="47.33" ry="47.342" fill="#666" stroke="#000" stroke-width="1.3149"/>
   <ellipse cx="48" cy="48" rx="26.294" ry="26.301" fill="#fff"/>
   <ellipse cx="48" cy="48" rx="23.008" ry="23.013" fill="#666"/>
   <ellipse cx="48" cy="48" rx="16.434" ry="16.438" fill="#fff"/>
  </g>
  <g transform="translate(789.99 774.46)">
   <ellipse cx="48" cy="48" rx="47.33" ry="47.342" fill="#666" stroke="#000" stroke-width="1.3149"/>
   <ellipse cx="48" cy="48" rx="26.294" ry="26.301" fill="#fff"/>
   <ellipse cx="48" cy="48" rx="23.008" ry="23.013" fill="#666"/>
   <ellipse cx="48" cy="48" rx="16.434" ry="16.438" fill="#fff"/>
  </g>
  <g transform="translate(376.69 895.86)">
   <ellipse cx="48" cy="48" rx="47.33" ry="47.342" fill="#666" stroke="#000" stroke-width="1.3149"/>
   <ellipse cx="48" cy="48" rx="26.294" ry="26.301" fill="#fff"/>
   <ellipse cx="48" cy="48" rx="23.008" ry="23.013" fill="#666"/>
   <ellipse cx="48" cy="48" rx="16.434" ry="16.438" fill="#fff"/>
  </g>
  <g transform="translate(583.31 895.86)">
   <ellipse cx="48" cy="48" rx="47.33" ry="47.342" fill="#666" stroke="#000" stroke-width="1.3149"/>
   <ellipse cx="48" cy="48" rx="26.294" ry="26.301" fill="#fff"/>
   <ellipse cx="48" cy="48" rx="23.008" ry="23.013" fill="#666"/>
   <ellipse cx="48" cy="48" rx="16.434" ry="16.438" fill="#fff"/>
  </g>
  <g transform="translate(271.76 835.77)">
   <ellipse cx="48" cy="48" rx="47.33" ry="47.342" fill="#666" stroke="#000" stroke-width="1.3149"/>
   <ellipse cx="48" cy="48" rx="26.294" ry="26.301" fill="#fff"/>
   <ellipse cx="48" cy="48" rx="23.008" ry="23.013" fill="#666"/>
   <ellipse cx="48" cy="48" rx="16.434" ry="16.438" fill="#fff"/>
  </g>
  <g transform="translate(479.1 835.77)">
   <ellipse cx="48" cy="48" rx="47.33" ry="47.342" fill="#666" stroke="#000" stroke-width="1.3149"/>
   <ellipse cx="48" cy="48" rx="26.294" ry="26.301" fill="#fff"/>
   <ellipse cx="48" cy="48" rx="23.008" ry="23.013" fill="#666"/>
   <ellipse cx="48" cy="48" rx="16.434" ry="16.438" fill="#fff"/>
  </g>
  <g transform="translate(686.45 835.77)">
   <ellipse cx="48" cy="48" rx="47.33" ry="47.342" fill="#666" stroke="#000" stroke-width="1.3149"/>
   <ellipse cx="48" cy="48" rx="26.294" ry="26.301" fill="#fff"/>
   <ellipse cx="48" cy="48" rx="23.008" ry="23.013" fill="#666"/>
   <ellipse cx="48" cy="48" rx="16.434" ry="16.438" fill="#fff"/>
  </g>
  <g transform="matrix(-1.109 -1.8767 -1.4056 .83066 1044.2 486.34)" fill="#206b00">
   <path d="m6.1436 358.74h7.9375l1.7939-78.497h7.9375l-11.906-13.229-11.906 13.229h7.9375z" fill="#206b00"/>
  </g>
  <g transform="matrix(-1.109 -1.8767 -1.4056 .83066 699.92 562.55)" fill="#206b00">
   <path d="m7.9375 314.64h7.9375l-4.3108-116.37h7.9375l-11.906-13.229-11.906 13.229h7.9375z" fill="#206b00"/>
  </g>
  <g transform="matrix(.25317 0 0 .28655 337.74 541.79)">
   <g transform="matrix(13.672 1.7242 -1.7242 13.672 1164.2 -3887)">
    <path d="m-14.098 291.18 3.4984 5.1996s11.173-8.4251 18.871-11.104c11.327-3.9411 24.527 7.5085 24.527 7.5085l-4.5492 3.3343 15.225 3.827 0.56754-14.571-4.371 3.067s-17.325-15.723-32.368-9.9206c-10.664 4.1136-21.401 12.658-21.401 12.658z" fill="#7a0000"/>
   </g>
   <g transform="matrix(6.3147 -12.248 -12.248 -6.3147 4166.5 1811.3)">
    <path d="m-14.098 291.18 3.4984 5.1996s11.173-8.4251 18.871-11.104c11.327-3.9411 24.527 7.5085 24.527 7.5085l-4.5492 3.3343 15.225 3.827 0.56754-14.571-4.371 3.067s-17.325-15.723-32.368-9.9206c-10.664 4.1136-21.401 12.658-21.401 12.658z" fill="#7a0000"/>
   </g>
  </g>
  <g transform="translate(475.05 477.82)">
   <ellipse cx="48" cy="48" rx="47.33" ry="47.342" fill="#fff" stroke="#000" stroke-width="1.3149"/>
   <ellipse cx="48" cy="48" rx="26.294" ry="26.301"/>
   <ellipse cx="48" cy="48" rx="23.008" ry="23.013" fill="#fff"/>
   <ellipse cx="48" cy="48" rx="16.434" ry="16.438"/>
  </g>
 </g>
</svg>
