<?xml version="1.0" encoding="UTF-8"?>
<!-- Created with Inkscape (http://www.inkscape.org/) -->
<svg width="11in" height="8.5in" version="1.1" xmlns="http://www.w3.org/2000/svg">
 <rect x="3.6214" y=".90606" width="1056" height="816" fill="#fff"/>
 <g stroke="#000" stroke-width="1.1412">
  <rect x="144.57" y="24.571" width="109.55" height="109.55" fill="#d4d4d4" fill-rule="evenodd"/>
  <rect x="254.12" y="24.571" width="109.55" height="109.55" fill="none"/>
  <rect x="363.67" y="24.571" width="109.55" height="109.55" fill="#d4d4d4" fill-rule="evenodd"/>
  <rect x="473.22" y="24.571" width="109.55" height="109.55" fill="none"/>
  <rect x="582.78" y="24.571" width="109.55" height="109.55" fill="#d4d4d4" fill-rule="evenodd"/>
  <rect x="692.33" y="24.571" width="109.55" height="109.55" fill="none"/>
  <rect x="801.88" y="24.571" width="109.55" height="109.55" fill="#d4d4d4" fill-rule="evenodd"/>
  <rect x="144.57" y="134.12" width="109.55" height="109.55" fill="none"/>
  <rect x="254.12" y="134.12" width="109.55" height="109.55" fill="#d4d4d4" fill-rule="evenodd"/>
  <rect x="363.67" y="134.12" width="109.55" height="109.55" fill="none"/>
  <rect x="473.22" y="134.12" width="109.55" height="109.55" fill="#d4d4d4" fill-rule="evenodd"/>
  <rect x="582.78" y="134.12" width="109.55" height="109.55" fill="none"/>
  <rect x="692.33" y="134.12" width="109.55" height="109.55" fill="#d4d4d4" fill-rule="evenodd"/>
  <rect x="801.88" y="134.12" width="109.55" height="109.55" fill="none"/>
  <rect x="144.57" y="243.67" width="109.55" height="109.55" fill="#d4d4d4" fill-rule="evenodd"/>
  <rect x="254.12" y="243.67" width="109.55" height="109.55" fill="none"/>
  <rect x="363.67" y="243.67" width="109.55" height="109.55" fill="#d4d4d4" fill-rule="evenodd"/>
  <rect x="473.22" y="243.67" width="109.55" height="109.55" fill="none"/>
  <rect x="582.78" y="243.67" width="109.55" height="109.55" fill="#d4d4d4" fill-rule="evenodd"/>
  <rect x="692.33" y="243.67" width="109.55" height="109.55" fill="none"/>
  <rect x="801.88" y="243.67" width="109.55" height="109.55" fill="#d4d4d4" fill-rule="evenodd"/>
  <rect x="144.57" y="353.22" width="109.55" height="109.55" fill="none"/>
  <rect x="254.12" y="353.22" width="109.55" height="109.55" fill="#d4d4d4" fill-rule="evenodd"/>
  <rect x="363.67" y="353.22" width="109.55" height="109.55" fill="none"/>
  <rect x="473.22" y="353.22" width="109.55" height="109.55" fill="#d4d4d4" fill-rule="evenodd"/>
  <rect x="582.78" y="353.22" width="109.55" height="109.55" fill="none"/>
  <rect x="692.33" y="353.22" width="109.55" height="109.55" fill="#d4d4d4" fill-rule="evenodd"/>
  <rect x="801.88" y="353.22" width="109.55" height="109.55" fill="none"/>
  <rect x="144.57" y="462.78" width="109.55" height="109.55" fill="#d4d4d4" fill-rule="evenodd"/>
  <rect x="254.12" y="462.78" width="109.55" height="109.55" fill="none"/>
  <rect x="363.67" y="462.78" width="109.55" height="109.55" fill="#d4d4d4" fill-rule="evenodd"/>
  <rect x="473.22" y="462.78" width="109.55" height="109.55" fill="none"/>
  <rect x="582.78" y="462.78" width="109.55" height="109.55" fill="#d4d4d4" fill-rule="evenodd"/>
  <rect x="692.33" y="462.78" width="109.55" height="109.55" fill="none"/>
  <rect x="801.88" y="462.78" width="109.55" height="109.55" fill="#d4d4d4" fill-rule="evenodd"/>
  <rect x="144.57" y="572.33" width="109.55" height="109.55" fill="none"/>
  <rect x="254.12" y="572.33" width="109.55" height="109.55" fill="#d4d4d4" fill-rule="evenodd"/>
  <rect x="363.67" y="572.33" width="109.55" height="109.55" fill="none"/>
  <rect x="473.22" y="572.33" width="109.55" height="109.55" fill="#d4d4d4" fill-rule="evenodd"/>
  <rect x="582.78" y="572.33" width="109.55" height="109.55" fill="none"/>
  <rect x="692.33" y="572.33" width="109.55" height="109.55" fill="#d4d4d4" fill-rule="evenodd"/>
  <rect x="801.88" y="572.33" width="109.55" height="109.55" fill="none"/>
  <rect x="144.57" y="681.88" width="109.55" height="109.55" fill="#d4d4d4" fill-rule="evenodd"/>
  <rect x="254.12" y="681.88" width="109.55" height="109.55" fill="none"/>
  <rect x="363.67" y="681.88" width="109.55" height="109.55" fill="#d4d4d4" fill-rule="evenodd"/>
  <rect x="473.22" y="681.88" width="109.55" height="109.55" fill="none"/>
  <rect x="582.78" y="681.88" width="109.55" height="109.55" fill="#d4d4d4" fill-rule="evenodd"/>
  <rect x="692.33" y="681.88" width="109.55" height="109.55" fill="none"/>
  <rect x="801.88" y="681.88" width="109.55" height="109.55" fill="#d4d4d4" fill-rule="evenodd"/>
 </g>
 <g transform="translate(151.35 31.346)">
  <ellipse cx="48" cy="48" rx="47.33" ry="47.342" fill="#666" stroke="#000" stroke-width="1.3149"/>
  <ellipse cx="48" cy="48" rx="26.294" ry="26.301" fill="#fff"/>
  <ellipse cx="48" cy="48" rx="23.008" ry="23.013" fill="#666"/>
  <ellipse cx="48" cy="48" rx="16.434" ry="16.438" fill="#fff"/>
 </g>
 <g transform="translate(260.9 31.346)">
  <ellipse cx="48" cy="48" rx="47.33" ry="47.342" fill="#666" stroke="#000" stroke-width="1.3149"/>
  <ellipse cx="48" cy="48" rx="26.294" ry="26.301" fill="#fff"/>
  <ellipse cx="48" cy="48" rx="23.008" ry="23.013" fill="#666"/>
  <ellipse cx="48" cy="48" rx="16.434" ry="16.438" fill="#fff"/>
 </g>
 <g transform="translate(370.45 31.346)">
  <ellipse cx="48" cy="48" rx="47.33" ry="47.342" fill="#666" stroke="#000" stroke-width="1.3149"/>
  <ellipse cx="48" cy="48" rx="26.294" ry="26.301" fill="#fff"/>
  <ellipse cx="48" cy="48" rx="23.008" ry="23.013" fill="#666"/>
  <ellipse cx="48" cy="48" rx="16.434" ry="16.438" fill="#fff"/>
 </g>
 <g transform="translate(589.55 31.346)">
  <ellipse cx="48" cy="48" rx="47.33" ry="47.342" fill="#666" stroke="#000" stroke-width="1.3149"/>
  <ellipse cx="48" cy="48" rx="26.294" ry="26.301" fill="#fff"/>
  <ellipse cx="48" cy="48" rx="23.008" ry="23.013" fill="#666"/>
  <ellipse cx="48" cy="48" rx="16.434" ry="16.438" fill="#fff"/>
 </g>
 <g transform="translate(699.1 31.346)">
  <ellipse cx="48" cy="48" rx="47.33" ry="47.342" fill="#666" stroke="#000" stroke-width="1.3149"/>
  <ellipse cx="48" cy="48" rx="26.294" ry="26.301" fill="#fff"/>
  <ellipse cx="48" cy="48" rx="23.008" ry="23.013" fill="#666"/>
  <ellipse cx="48" cy="48" rx="16.434" ry="16.438" fill="#fff"/>
 </g>
 <g transform="translate(808.65 31.346)">
  <ellipse cx="48" cy="48" rx="47.33" ry="47.342" fill="#666" stroke="#000" stroke-width="1.3149"/>
  <ellipse cx="48" cy="48" rx="26.294" ry="26.301" fill="#fff"/>
  <ellipse cx="48" cy="48" rx="23.008" ry="23.013" fill="#666"/>
  <ellipse cx="48" cy="48" rx="16.434" ry="16.438" fill="#fff"/>
 </g>
 <g transform="translate(480 31.346)">
  <ellipse cx="48" cy="48" rx="47.33" ry="47.342" fill="#333" stroke="#000" stroke-width="1.3149"/>
  <ellipse cx="48" cy="48" rx="26.294" ry="26.301" fill="#fff"/>
  <ellipse cx="48" cy="48" rx="23.008" ry="23.013" fill="#333"/>
  <ellipse cx="48" cy="48" rx="16.434" ry="16.438" fill="#fff"/>
 </g>
 <g transform="translate(370.45 688.65)">
  <ellipse cx="48" cy="48" rx="47.33" ry="47.342" fill="#fff" stroke="#000" stroke-width="1.3149"/>
  <ellipse cx="48" cy="48" rx="26.294" ry="26.301"/>
  <ellipse cx="48" cy="48" rx="23.008" ry="23.013" fill="#fff"/>
  <ellipse cx="48" cy="48" rx="16.434" ry="16.438"/>
 </g>
 <g transform="translate(260.9 688.65)">
  <ellipse cx="48" cy="48" rx="47.33" ry="47.342" fill="#fff" stroke="#000" stroke-width="1.3149"/>
  <ellipse cx="48" cy="48" rx="26.294" ry="26.301"/>
  <ellipse cx="48" cy="48" rx="23.008" ry="23.013" fill="#fff"/>
  <ellipse cx="48" cy="48" rx="16.434" ry="16.438"/>
 </g>
 <g transform="translate(151.35 688.65)">
  <ellipse cx="48" cy="48" rx="47.33" ry="47.342" fill="#fff" stroke="#000" stroke-width="1.3149"/>
  <ellipse cx="48" cy="48" rx="26.294" ry="26.301"/>
  <ellipse cx="48" cy="48" rx="23.008" ry="23.013" fill="#fff"/>
  <ellipse cx="48" cy="48" rx="16.434" ry="16.438"/>
 </g>
 <g transform="translate(151.35 579.1)">
  <ellipse cx="48" cy="48" rx="47.33" ry="47.342" fill="#fff" stroke="#000" stroke-width="1.3149"/>
  <ellipse cx="48" cy="48" rx="26.294" ry="26.301"/>
  <ellipse cx="48" cy="48" rx="23.008" ry="23.013" fill="#fff"/>
  <ellipse cx="48" cy="48" rx="16.434" ry="16.438"/>
 </g>
 <g transform="translate(260.9 579.1)">
  <ellipse cx="48" cy="48" rx="47.33" ry="47.342" fill="#fff" stroke="#000" stroke-width="1.3149"/>
  <ellipse cx="48" cy="48" rx="26.294" ry="26.301"/>
  <ellipse cx="48" cy="48" rx="23.008" ry="23.013" fill="#fff"/>
  <ellipse cx="48" cy="48" rx="16.434" ry="16.438"/>
 </g>
 <g transform="translate(370.45 579.1)">
  <ellipse cx="48" cy="48" rx="47.33" ry="47.342" fill="#fff" stroke="#000" stroke-width="1.3149"/>
  <ellipse cx="48" cy="48" rx="26.294" ry="26.301"/>
  <ellipse cx="48" cy="48" rx="23.008" ry="23.013" fill="#fff"/>
  <ellipse cx="48" cy="48" rx="16.434" ry="16.438"/>
 </g>
 <g transform="translate(480 579.1)">
  <ellipse cx="48" cy="48" rx="47.33" ry="47.342" fill="#fff" stroke="#000" stroke-width="1.3149"/>
  <ellipse cx="48" cy="48" rx="26.294" ry="26.301"/>
  <ellipse cx="48" cy="48" rx="23.008" ry="23.013" fill="#fff"/>
  <ellipse cx="48" cy="48" rx="16.434" ry="16.438"/>
 </g>
 <g transform="translate(589.55 579.1)">
  <ellipse cx="48" cy="48" rx="47.33" ry="47.342" fill="#fff" stroke="#000" stroke-width="1.3149"/>
  <ellipse cx="48" cy="48" rx="26.294" ry="26.301"/>
  <ellipse cx="48" cy="48" rx="23.008" ry="23.013" fill="#fff"/>
  <ellipse cx="48" cy="48" rx="16.434" ry="16.438"/>
 </g>
 <g transform="translate(699.1 579.1)">
  <ellipse cx="48" cy="48" rx="47.33" ry="47.342" fill="#fff" stroke="#000" stroke-width="1.3149"/>
  <ellipse cx="48" cy="48" rx="26.294" ry="26.301"/>
  <ellipse cx="48" cy="48" rx="23.008" ry="23.013" fill="#fff"/>
  <ellipse cx="48" cy="48" rx="16.434" ry="16.438"/>
 </g>
 <g transform="translate(808.65 579.1)">
  <ellipse cx="48" cy="48" rx="47.33" ry="47.342" fill="#fff" stroke="#000" stroke-width="1.3149"/>
  <ellipse cx="48" cy="48" rx="26.294" ry="26.301"/>
  <ellipse cx="48" cy="48" rx="23.008" ry="23.013" fill="#fff"/>
  <ellipse cx="48" cy="48" rx="16.434" ry="16.438"/>
 </g>
 <g transform="translate(589.55 688.65)">
  <ellipse cx="48" cy="48" rx="47.33" ry="47.342" fill="#fff" stroke="#000" stroke-width="1.3149"/>
  <ellipse cx="48" cy="48" rx="26.294" ry="26.301"/>
  <ellipse cx="48" cy="48" rx="23.008" ry="23.013" fill="#fff"/>
  <ellipse cx="48" cy="48" rx="16.434" ry="16.438"/>
 </g>
 <g transform="translate(699.1 688.65)">
  <ellipse cx="48" cy="48" rx="47.33" ry="47.342" fill="#fff" stroke="#000" stroke-width="1.3149"/>
  <ellipse cx="48" cy="48" rx="26.294" ry="26.301"/>
  <ellipse cx="48" cy="48" rx="23.008" ry="23.013" fill="#fff"/>
  <ellipse cx="48" cy="48" rx="16.434" ry="16.438"/>
 </g>
 <g transform="translate(808.65 688.65)">
  <ellipse cx="48" cy="48" rx="47.33" ry="47.342" fill="#fff" stroke="#000" stroke-width="1.3149"/>
  <ellipse cx="48" cy="48" rx="26.294" ry="26.301"/>
  <ellipse cx="48" cy="48" rx="23.008" ry="23.013" fill="#fff"/>
  <ellipse cx="48" cy="48" rx="16.434" ry="16.438"/>
 </g>
 <g transform="translate(480 688.65)">
  <ellipse cx="48" cy="48" rx="47.33" ry="47.342" fill="#d4d4d4" stroke="#000" stroke-width="1.3149"/>
  <ellipse cx="48" cy="48" rx="26.294" ry="26.301"/>
  <ellipse cx="48" cy="48" rx="23.008" ry="23.013" fill="#d4d4d4"/>
  <ellipse cx="48" cy="48" rx="16.434" ry="16.438"/>
 </g>
 <g transform="translate(808.65 140.9)">
  <ellipse cx="48" cy="48" rx="47.33" ry="47.342" fill="#666" stroke="#000" stroke-width="1.3149"/>
  <ellipse cx="48" cy="48" rx="26.294" ry="26.301" fill="#fff"/>
  <ellipse cx="48" cy="48" rx="23.008" ry="23.013" fill="#666"/>
  <ellipse cx="48" cy="48" rx="16.434" ry="16.438" fill="#fff"/>
 </g>
 <g transform="translate(699.1 140.9)">
  <ellipse cx="48" cy="48" rx="47.33" ry="47.342" fill="#666" stroke="#000" stroke-width="1.3149"/>
  <ellipse cx="48" cy="48" rx="26.294" ry="26.301" fill="#fff"/>
  <ellipse cx="48" cy="48" rx="23.008" ry="23.013" fill="#666"/>
  <ellipse cx="48" cy="48" rx="16.434" ry="16.438" fill="#fff"/>
 </g>
 <g transform="translate(589.55 140.9)">
  <ellipse cx="48" cy="48" rx="47.33" ry="47.342" fill="#666" stroke="#000" stroke-width="1.3149"/>
  <ellipse cx="48" cy="48" rx="26.294" ry="26.301" fill="#fff"/>
  <ellipse cx="48" cy="48" rx="23.008" ry="23.013" fill="#666"/>
  <ellipse cx="48" cy="48" rx="16.434" ry="16.438" fill="#fff"/>
 </g>
 <g transform="translate(480 140.9)">
  <ellipse cx="48" cy="48" rx="47.33" ry="47.342" fill="#666" stroke="#000" stroke-width="1.3149"/>
  <ellipse cx="48" cy="48" rx="26.294" ry="26.301" fill="#fff"/>
  <ellipse cx="48" cy="48" rx="23.008" ry="23.013" fill="#666"/>
  <ellipse cx="48" cy="48" rx="16.434" ry="16.438" fill="#fff"/>
 </g>
 <g transform="translate(370.45 140.9)">
  <ellipse cx="48" cy="48" rx="47.33" ry="47.342" fill="#666" stroke="#000" stroke-width="1.3149"/>
  <ellipse cx="48" cy="48" rx="26.294" ry="26.301" fill="#fff"/>
  <ellipse cx="48" cy="48" rx="23.008" ry="23.013" fill="#666"/>
  <ellipse cx="48" cy="48" rx="16.434" ry="16.438" fill="#fff"/>
 </g>
 <g transform="translate(260.9 140.9)">
  <ellipse cx="48" cy="48" rx="47.33" ry="47.342" fill="#666" stroke="#000" stroke-width="1.3149"/>
  <ellipse cx="48" cy="48" rx="26.294" ry="26.301" fill="#fff"/>
  <ellipse cx="48" cy="48" rx="23.008" ry="23.013" fill="#666"/>
  <ellipse cx="48" cy="48" rx="16.434" ry="16.438" fill="#fff"/>
 </g>
 <g transform="translate(151.35 140.9)">
  <ellipse cx="48" cy="48" rx="47.33" ry="47.342" fill="#666" stroke="#000" stroke-width="1.3149"/>
  <ellipse cx="48" cy="48" rx="26.294" ry="26.301" fill="#fff"/>
  <ellipse cx="48" cy="48" rx="23.008" ry="23.013" fill="#666"/>
  <ellipse cx="48" cy="48" rx="16.434" ry="16.438" fill="#fff"/>
 </g>
</svg>
