<?xml version="1.0" encoding="UTF-8"?>
<!-- Created with Inkscape (http://www.inkscape.org/) -->
<svg width="8.5in" height="11in" version="1.1" xmlns="http://www.w3.org/2000/svg">
 <rect y="-3.5477e-8" width="816" height="1056" fill="#fff"/>
 <circle cx="96" cy="96" r="47.342" fill="#fff" stroke="#000" stroke-width="1.3151"/>
 <circle cx="96" cy="96" r="26.301"/>
 <ellipse cx="96" cy="96" rx="23.014" ry="23.013" fill="#fff"/>
 <ellipse cx="220.8" cy="96" rx="47.33" ry="47.342" fill="#fff" stroke="#000" stroke-width="1.3149"/>
 <ellipse cx="220.8" cy="96" rx="26.294" ry="26.301"/>
 <ellipse cx="220.8" cy="96" rx="23.008" ry="23.013" fill="#fff"/>
 <ellipse cx="345.59" cy="96" rx="47.33" ry="47.342" fill="#fff" stroke="#000" stroke-width="1.3149"/>
 <ellipse cx="345.59" cy="96" rx="26.294" ry="26.301"/>
 <ellipse cx="345.59" cy="96" rx="23.008" ry="23.013" fill="#fff"/>
 <ellipse cx="470.39" cy="96" rx="47.33" ry="47.342" fill="#fff" stroke="#000" stroke-width="1.3149"/>
 <ellipse cx="470.39" cy="96" rx="26.294" ry="26.301"/>
 <ellipse cx="470.39" cy="96" rx="23.008" ry="23.013" fill="#fff"/>
 <ellipse cx="595.19" cy="96" rx="47.33" ry="47.342" fill="#fff" stroke="#000" stroke-width="1.3149"/>
 <ellipse cx="595.19" cy="96" rx="26.294" ry="26.301"/>
 <ellipse cx="595.19" cy="96" rx="23.008" ry="23.013" fill="#fff"/>
 <ellipse cx="719.99" cy="96" rx="47.33" ry="47.342" fill="#fff" stroke="#000" stroke-width="1.3149"/>
 <ellipse cx="719.99" cy="96" rx="26.294" ry="26.301"/>
 <ellipse cx="719.99" cy="96" rx="23.008" ry="23.013" fill="#fff"/>
 <circle cx="96.013" cy="288" r="47.342" fill="#fff" stroke="#000" stroke-width="1.3151"/>
 <circle cx="96.013" cy="288" r="26.301"/>
 <ellipse cx="96.013" cy="288" rx="23.014" ry="23.013" fill="#fff"/>
 <ellipse cx="220.81" cy="288" rx="47.33" ry="47.342" fill="#fff" stroke="#000" stroke-width="1.3149"/>
 <ellipse cx="220.81" cy="288" rx="26.294" ry="26.301"/>
 <ellipse cx="220.81" cy="288" rx="23.008" ry="23.013" fill="#fff"/>
 <ellipse cx="345.61" cy="288" rx="47.33" ry="47.342" fill="#fff" stroke="#000" stroke-width="1.3149"/>
 <ellipse cx="345.61" cy="288" rx="26.294" ry="26.301"/>
 <ellipse cx="345.61" cy="288" rx="23.008" ry="23.013" fill="#fff"/>
 <ellipse cx="470.41" cy="288" rx="47.33" ry="47.342" fill="#fff" stroke="#000" stroke-width="1.3149"/>
 <ellipse cx="470.41" cy="288" rx="26.294" ry="26.301"/>
 <ellipse cx="470.41" cy="288" rx="23.008" ry="23.013" fill="#fff"/>
 <ellipse cx="595.2" cy="288" rx="47.33" ry="47.342" fill="#fff" stroke="#000" stroke-width="1.3149"/>
 <ellipse cx="595.2" cy="288" rx="26.294" ry="26.301"/>
 <ellipse cx="595.2" cy="288" rx="23.008" ry="23.013" fill="#fff"/>
 <ellipse cx="720" cy="288" rx="47.33" ry="47.342" fill="#fff" stroke="#000" stroke-width="1.3149"/>
 <ellipse cx="720" cy="288" rx="26.294" ry="26.301"/>
 <ellipse cx="720" cy="288" rx="23.008" ry="23.013" fill="#fff"/>
 <ellipse cx="95.987" cy="480" rx="47.33" ry="47.342" fill="#666" stroke="#000" stroke-width="1.3149"/>
 <ellipse cx="95.987" cy="480" rx="26.294" ry="26.301" fill="#fff"/>
 <ellipse cx="95.987" cy="480" rx="23.008" ry="23.013" fill="#666"/>
 <ellipse cx="220.79" cy="480" rx="47.33" ry="47.342" fill="#666" stroke="#000" stroke-width="1.3149"/>
 <ellipse cx="220.79" cy="480" rx="26.294" ry="26.301" fill="#fff"/>
 <ellipse cx="220.79" cy="480" rx="23.008" ry="23.013" fill="#666"/>
 <ellipse cx="345.59" cy="480" rx="47.33" ry="47.342" fill="#666" stroke="#000" stroke-width="1.3149"/>
 <ellipse cx="345.59" cy="480" rx="26.294" ry="26.301" fill="#fff"/>
 <ellipse cx="345.59" cy="480" rx="23.008" ry="23.013" fill="#666"/>
 <ellipse cx="470.39" cy="480" rx="47.33" ry="47.342" fill="#666" stroke="#000" stroke-width="1.3149"/>
 <ellipse cx="470.39" cy="480" rx="26.294" ry="26.301" fill="#fff"/>
 <ellipse cx="470.39" cy="480" rx="23.008" ry="23.013" fill="#666"/>
 <ellipse cx="595.19" cy="480" rx="47.33" ry="47.342" fill="#666" stroke="#000" stroke-width="1.3149"/>
 <ellipse cx="595.19" cy="480" rx="26.294" ry="26.301" fill="#fff"/>
 <ellipse cx="595.19" cy="480" rx="23.008" ry="23.013" fill="#666"/>
 <ellipse cx="719.99" cy="480" rx="47.33" ry="47.342" fill="#666" stroke="#000" stroke-width="1.3149"/>
 <ellipse cx="719.99" cy="480" rx="26.294" ry="26.301" fill="#fff"/>
 <ellipse cx="719.99" cy="480" rx="23.008" ry="23.013" fill="#666"/>
 <ellipse cx="96" cy="672" rx="47.33" ry="47.342" fill="#666" stroke="#000" stroke-width="1.3149"/>
 <ellipse cx="96" cy="672" rx="26.294" ry="26.301" fill="#fff"/>
 <ellipse cx="96" cy="672" rx="23.008" ry="23.013" fill="#666"/>
 <ellipse cx="220.8" cy="672" rx="47.33" ry="47.342" fill="#666" stroke="#000" stroke-width="1.3149"/>
 <ellipse cx="220.8" cy="672" rx="26.294" ry="26.301" fill="#fff"/>
 <ellipse cx="220.8" cy="672" rx="23.008" ry="23.013" fill="#666"/>
 <ellipse cx="345.6" cy="672" rx="47.33" ry="47.342" fill="#666" stroke="#000" stroke-width="1.3149"/>
 <ellipse cx="345.6" cy="672" rx="26.294" ry="26.301" fill="#fff"/>
 <ellipse cx="345.6" cy="672" rx="23.008" ry="23.013" fill="#666"/>
 <ellipse cx="470.4" cy="672" rx="47.33" ry="47.342" fill="#666" stroke="#000" stroke-width="1.3149"/>
 <ellipse cx="470.4" cy="672" rx="26.294" ry="26.301" fill="#fff"/>
 <ellipse cx="470.4" cy="672" rx="23.008" ry="23.013" fill="#666"/>
 <ellipse cx="595.2" cy="672" rx="47.33" ry="47.342" fill="#666" stroke="#000" stroke-width="1.3149"/>
 <ellipse cx="595.2" cy="672" rx="26.294" ry="26.301" fill="#fff"/>
 <ellipse cx="595.2" cy="672" rx="23.008" ry="23.013" fill="#666"/>
 <ellipse cx="720" cy="672" rx="47.33" ry="47.342" fill="#666" stroke="#000" stroke-width="1.3149"/>
 <ellipse cx="720" cy="672" rx="26.294" ry="26.301" fill="#fff"/>
 <ellipse cx="720" cy="672" rx="23.008" ry="23.013" fill="#666"/>
 <g transform="translate(422.4 816)">
  <ellipse cx="48" cy="48" rx="47.33" ry="47.342" fill="#666" stroke="#000" stroke-width="1.3149"/>
  <ellipse cx="48" cy="48" rx="26.294" ry="26.301" fill="#fff"/>
  <ellipse cx="48" cy="48" rx="23.008" ry="23.013" fill="#666"/>
 </g>
 <g transform="translate(297.6 816)">
  <ellipse cx="48" cy="48" rx="47.33" ry="47.342" fill="#666" stroke="#000" stroke-width="1.3149"/>
  <ellipse cx="48" cy="48" rx="16.434" ry="16.438" fill="#fff"/>
  <path d="m50.88 45.12h25.08v5.76h-25.08v25.44h-5.76v-25.44h-24.96v-5.76h24.96v-25.44h5.76z" fill="#666"/>
 </g>
 <g transform="translate(672 816)">
  <ellipse cx="48" cy="48" rx="47.33" ry="47.342" fill="#fff" stroke="#000" stroke-width="1.3149"/>
  <ellipse cx="48" cy="48" rx="26.294" ry="26.301"/>
  <ellipse cx="48" cy="48" rx="23.008" ry="23.013" fill="#fff"/>
 </g>
 <g transform="translate(547.2 816)">
  <ellipse cx="48" cy="48" rx="47.33" ry="47.342" fill="#fafafa" stroke="#000" stroke-width="1.3149"/>
  <ellipse cx="48" cy="48" rx="16.434" ry="16.438"/>
  <path d="m50.88 45.12h25.08v5.76h-25.08v25.44h-5.76v-25.44h-24.96v-5.76h24.96v-25.44h5.76z" fill="#fafafa"/>
 </g>
</svg>
