<?xml version="1.0" encoding="UTF-8"?>
<!-- Created with Inkscape (http://www.inkscape.org/) -->
<svg width="8.5in" height="11in" version="1.1" xmlns="http://www.w3.org/2000/svg" xmlns:cc="http://creativecommons.org/ns#" xmlns:dc="http://purl.org/dc/elements/1.1/" xmlns:osb="http://www.openswatchbook.org/uri/2009/osb" xmlns:rdf="http://www.w3.org/1999/02/22-rdf-syntax-ns#" xmlns:xlink="http://www.w3.org/1999/xlink">
 <metadata>
  <rdf:RDF>
   <cc:Work rdf:about="">
    <dc:format>image/svg+xml</dc:format>
    <dc:type rdf:resource="http://purl.org/dc/dcmitype/StillImage"/>
    <dc:title/>
   </cc:Work>
  </rdf:RDF>
 </metadata>
 <g transform="translate(0,3.6403)">
  <rect y="-3.6403" width="816" height="1056" fill="#fff"/>
  <g transform="matrix(1.0003 0 0 1 47.987 44.36)">
   <ellipse cx="48" cy="48" rx="47.33" ry="47.342" fill="#fff" stroke="#000" stroke-width="1.3149"/>
   <ellipse cx="48" cy="48" rx="26.294" ry="26.301"/>
   <ellipse cx="48" cy="48" rx="23.008" ry="23.013" fill="#fff"/>
   <ellipse cx="48" cy="48" rx="16.434" ry="16.438"/>
  </g>
  <g transform="translate(172.8 44.36)">
   <ellipse cx="48" cy="48" rx="47.33" ry="47.342" fill="#fff" stroke="#000" stroke-width="1.3149"/>
   <ellipse cx="48" cy="48" rx="26.294" ry="26.301"/>
   <ellipse cx="48" cy="48" rx="23.008" ry="23.013" fill="#fff"/>
   <ellipse cx="48" cy="48" rx="16.434" ry="16.438"/>
  </g>
  <g transform="translate(297.59 44.36)">
   <ellipse cx="48" cy="48" rx="47.33" ry="47.342" fill="#fff" stroke="#000" stroke-width="1.3149"/>
   <ellipse cx="48" cy="48" rx="26.294" ry="26.301"/>
   <ellipse cx="48" cy="48" rx="23.008" ry="23.013" fill="#fff"/>
   <ellipse cx="48" cy="48" rx="16.434" ry="16.438"/>
  </g>
  <g transform="translate(422.39 44.36)">
   <ellipse cx="48" cy="48" rx="47.33" ry="47.342" fill="#fff" stroke="#000" stroke-width="1.3149"/>
   <ellipse cx="48" cy="48" rx="26.294" ry="26.301"/>
   <ellipse cx="48" cy="48" rx="23.008" ry="23.013" fill="#fff"/>
   <ellipse cx="48" cy="48" rx="16.434" ry="16.438"/>
  </g>
  <g transform="translate(547.19 44.36)">
   <ellipse cx="48" cy="48" rx="47.33" ry="47.342" fill="#fff" stroke="#000" stroke-width="1.3149"/>
   <ellipse cx="48" cy="48" rx="26.294" ry="26.301"/>
   <ellipse cx="48" cy="48" rx="23.008" ry="23.013" fill="#fff"/>
   <ellipse cx="48" cy="48" rx="16.434" ry="16.438"/>
  </g>
  <g transform="translate(671.99 44.36)">
   <ellipse cx="48" cy="48" rx="47.33" ry="47.342" fill="#fff" stroke="#000" stroke-width="1.3149"/>
   <ellipse cx="48" cy="48" rx="26.294" ry="26.301"/>
   <ellipse cx="48" cy="48" rx="23.008" ry="23.013" fill="#fff"/>
   <ellipse cx="48" cy="48" rx="16.434" ry="16.438"/>
  </g>
  <g transform="matrix(1.0003 0 0 1 48 236.36)">
   <ellipse cx="48" cy="48" rx="47.33" ry="47.342" fill="#fff" stroke="#000" stroke-width="1.3149"/>
   <ellipse cx="48" cy="48" rx="26.294" ry="26.301"/>
   <ellipse cx="48" cy="48" rx="23.008" ry="23.013" fill="#fff"/>
   <ellipse cx="48" cy="48" rx="16.434" ry="16.438"/>
  </g>
  <g transform="translate(172.81 236.36)">
   <ellipse cx="48" cy="48" rx="47.33" ry="47.342" fill="#fff" stroke="#000" stroke-width="1.3149"/>
   <ellipse cx="48" cy="48" rx="26.294" ry="26.301"/>
   <ellipse cx="48" cy="48" rx="23.008" ry="23.013" fill="#fff"/>
   <ellipse cx="48" cy="48" rx="16.434" ry="16.438"/>
  </g>
  <g transform="translate(297.61 236.36)">
   <ellipse cx="48" cy="48" rx="47.33" ry="47.342" fill="#fff" stroke="#000" stroke-width="1.3149"/>
   <ellipse cx="48" cy="48" rx="26.294" ry="26.301"/>
   <ellipse cx="48" cy="48" rx="23.008" ry="23.013" fill="#fff"/>
   <ellipse cx="48" cy="48" rx="16.434" ry="16.438"/>
  </g>
  <g transform="translate(422.41 236.36)">
   <ellipse cx="48" cy="48" rx="47.33" ry="47.342" fill="#fff" stroke="#000" stroke-width="1.3149"/>
   <ellipse cx="48" cy="48" rx="26.294" ry="26.301"/>
   <ellipse cx="48" cy="48" rx="23.008" ry="23.013" fill="#fff"/>
   <ellipse cx="48" cy="48" rx="16.434" ry="16.438"/>
  </g>
  <g transform="translate(547.2 236.36)">
   <ellipse cx="48" cy="48" rx="47.33" ry="47.342" fill="#fff" stroke="#000" stroke-width="1.3149"/>
   <ellipse cx="48" cy="48" rx="26.294" ry="26.301"/>
   <ellipse cx="48" cy="48" rx="23.008" ry="23.013" fill="#fff"/>
   <ellipse cx="48" cy="48" rx="16.434" ry="16.438"/>
  </g>
  <g transform="translate(672 236.36)">
   <ellipse cx="48" cy="48" rx="47.33" ry="47.342" fill="#fff" stroke="#000" stroke-width="1.3149"/>
   <ellipse cx="48" cy="48" rx="26.294" ry="26.301"/>
   <ellipse cx="48" cy="48" rx="23.008" ry="23.013" fill="#fff"/>
   <ellipse cx="48" cy="48" rx="16.434" ry="16.438"/>
  </g>
  <g transform="translate(47.987 428.36)">
   <ellipse cx="48" cy="48" rx="47.33" ry="47.342" fill="#666" stroke="#000" stroke-width="1.3149"/>
   <ellipse cx="48" cy="48" rx="26.294" ry="26.301" fill="#fff"/>
   <ellipse cx="48" cy="48" rx="23.008" ry="23.013" fill="#666"/>
   <ellipse cx="48" cy="48" rx="16.434" ry="16.438" fill="#fff"/>
  </g>
  <g transform="translate(172.79 428.36)">
   <ellipse cx="48" cy="48" rx="47.33" ry="47.342" fill="#666" stroke="#000" stroke-width="1.3149"/>
   <ellipse cx="48" cy="48" rx="26.294" ry="26.301" fill="#fff"/>
   <ellipse cx="48" cy="48" rx="23.008" ry="23.013" fill="#666"/>
   <ellipse cx="48" cy="48" rx="16.434" ry="16.438" fill="#fff"/>
  </g>
  <g transform="translate(297.59 428.36)">
   <ellipse cx="48" cy="48" rx="47.33" ry="47.342" fill="#666" stroke="#000" stroke-width="1.3149"/>
   <ellipse cx="48" cy="48" rx="26.294" ry="26.301" fill="#fff"/>
   <ellipse cx="48" cy="48" rx="23.008" ry="23.013" fill="#666"/>
   <ellipse cx="48" cy="48" rx="16.434" ry="16.438" fill="#fff"/>
  </g>
  <g transform="translate(422.39 428.36)">
   <ellipse cx="48" cy="48" rx="47.33" ry="47.342" fill="#666" stroke="#000" stroke-width="1.3149"/>
   <ellipse cx="48" cy="48" rx="26.294" ry="26.301" fill="#fff"/>
   <ellipse cx="48" cy="48" rx="23.008" ry="23.013" fill="#666"/>
   <ellipse cx="48" cy="48" rx="16.434" ry="16.438" fill="#fff"/>
  </g>
  <g transform="translate(547.19 428.36)">
   <ellipse cx="48" cy="48" rx="47.33" ry="47.342" fill="#666" stroke="#000" stroke-width="1.3149"/>
   <ellipse cx="48" cy="48" rx="26.294" ry="26.301" fill="#fff"/>
   <ellipse cx="48" cy="48" rx="23.008" ry="23.013" fill="#666"/>
   <ellipse cx="48" cy="48" rx="16.434" ry="16.438" fill="#fff"/>
  </g>
  <g transform="translate(671.99 428.36)">
   <ellipse cx="48" cy="48" rx="47.33" ry="47.342" fill="#666" stroke="#000" stroke-width="1.3149"/>
   <ellipse cx="48" cy="48" rx="26.294" ry="26.301" fill="#fff"/>
   <ellipse cx="48" cy="48" rx="23.008" ry="23.013" fill="#666"/>
   <ellipse cx="48" cy="48" rx="16.434" ry="16.438" fill="#fff"/>
  </g>
  <g transform="translate(48 620.36)">
   <ellipse cx="48" cy="48" rx="47.33" ry="47.342" fill="#666" stroke="#000" stroke-width="1.3149"/>
   <ellipse cx="48" cy="48" rx="26.294" ry="26.301" fill="#fff"/>
   <ellipse cx="48" cy="48" rx="23.008" ry="23.013" fill="#666"/>
   <ellipse cx="48" cy="48" rx="16.434" ry="16.438" fill="#fff"/>
  </g>
  <g transform="translate(172.8 620.36)">
   <ellipse cx="48" cy="48" rx="47.33" ry="47.342" fill="#666" stroke="#000" stroke-width="1.3149"/>
   <ellipse cx="48" cy="48" rx="26.294" ry="26.301" fill="#fff"/>
   <ellipse cx="48" cy="48" rx="23.008" ry="23.013" fill="#666"/>
   <ellipse cx="48" cy="48" rx="16.434" ry="16.438" fill="#fff"/>
  </g>
  <g transform="translate(297.6 620.36)">
   <ellipse cx="48" cy="48" rx="47.33" ry="47.342" fill="#666" stroke="#000" stroke-width="1.3149"/>
   <ellipse cx="48" cy="48" rx="26.294" ry="26.301" fill="#fff"/>
   <ellipse cx="48" cy="48" rx="23.008" ry="23.013" fill="#666"/>
   <ellipse cx="48" cy="48" rx="16.434" ry="16.438" fill="#fff"/>
  </g>
  <g transform="translate(422.4 620.36)">
   <ellipse cx="48" cy="48" rx="47.33" ry="47.342" fill="#666" stroke="#000" stroke-width="1.3149"/>
   <ellipse cx="48" cy="48" rx="26.294" ry="26.301" fill="#fff"/>
   <ellipse cx="48" cy="48" rx="23.008" ry="23.013" fill="#666"/>
   <ellipse cx="48" cy="48" rx="16.434" ry="16.438" fill="#fff"/>
  </g>
  <g transform="translate(547.2 620.36)">
   <ellipse cx="48" cy="48" rx="47.33" ry="47.342" fill="#666" stroke="#000" stroke-width="1.3149"/>
   <ellipse cx="48" cy="48" rx="26.294" ry="26.301" fill="#fff"/>
   <ellipse cx="48" cy="48" rx="23.008" ry="23.013" fill="#666"/>
   <ellipse cx="48" cy="48" rx="16.434" ry="16.438" fill="#fff"/>
  </g>
  <g transform="translate(672 620.36)">
   <ellipse cx="48" cy="48" rx="47.33" ry="47.342" fill="#666" stroke="#000" stroke-width="1.3149"/>
   <ellipse cx="48" cy="48" rx="26.294" ry="26.301" fill="#fff"/>
   <ellipse cx="48" cy="48" rx="23.008" ry="23.013" fill="#666"/>
   <ellipse cx="48" cy="48" rx="16.434" ry="16.438" fill="#fff"/>
  </g>
 </g>
</svg>
