<?xml version="1.0" encoding="UTF-8"?>
<!-- Created with Inkscape (http://www.inkscape.org/) -->
<svg width="8.5in" height="11in" version="1.1" xmlns="http://www.w3.org/2000/svg" xmlns:cc="http://creativecommons.org/ns#" xmlns:dc="http://purl.org/dc/elements/1.1/" xmlns:osb="http://www.openswatchbook.org/uri/2009/osb" xmlns:rdf="http://www.w3.org/1999/02/22-rdf-syntax-ns#" xmlns:xlink="http://www.w3.org/1999/xlink">
 <metadata>
  <rdf:RDF>
   <cc:Work rdf:about="">
    <dc:format>image/svg+xml</dc:format>
    <dc:type rdf:resource="http://purl.org/dc/dcmitype/StillImage"/>
    <dc:title/>
   </cc:Work>
  </rdf:RDF>
 </metadata>
 <g transform="translate(0,3.6403)">
  <rect y="-3.6403" width="816" height="1056" fill="#fff"/>
  <ellipse cx="96" cy="92.36" rx="47.342" ry="47.342" fill="#fff" stroke="#000" stroke-width="1.3151"/>
  <ellipse cx="96" cy="92.36" rx="26.301" ry="26.301"/>
  <ellipse cx="96" cy="92.36" rx="23.014" ry="23.013" fill="#fff"/>
  <ellipse cx="220.8" cy="92.36" rx="47.33" ry="47.342" fill="#fff" stroke="#000" stroke-width="1.3149"/>
  <ellipse cx="220.8" cy="92.36" rx="26.294" ry="26.301"/>
  <ellipse cx="220.8" cy="92.36" rx="23.008" ry="23.013" fill="#fff"/>
  <ellipse cx="345.59" cy="92.36" rx="47.33" ry="47.342" fill="#fff" stroke="#000" stroke-width="1.3149"/>
  <ellipse cx="345.59" cy="92.36" rx="26.294" ry="26.301"/>
  <ellipse cx="345.59" cy="92.36" rx="23.008" ry="23.013" fill="#fff"/>
  <ellipse cx="470.39" cy="92.36" rx="47.33" ry="47.342" fill="#fff" stroke="#000" stroke-width="1.3149"/>
  <ellipse cx="470.39" cy="92.36" rx="26.294" ry="26.301"/>
  <ellipse cx="470.39" cy="92.36" rx="23.008" ry="23.013" fill="#fff"/>
  <ellipse cx="595.19" cy="92.36" rx="47.33" ry="47.342" fill="#fff" stroke="#000" stroke-width="1.3149"/>
  <ellipse cx="595.19" cy="92.36" rx="26.294" ry="26.301"/>
  <ellipse cx="595.19" cy="92.36" rx="23.008" ry="23.013" fill="#fff"/>
  <ellipse cx="719.99" cy="92.36" rx="47.33" ry="47.342" fill="#fff" stroke="#000" stroke-width="1.3149"/>
  <ellipse cx="719.99" cy="92.36" rx="26.294" ry="26.301"/>
  <ellipse cx="719.99" cy="92.36" rx="23.008" ry="23.013" fill="#fff"/>
  <ellipse cx="96.013" cy="284.36" rx="47.342" ry="47.342" fill="#fff" stroke="#000" stroke-width="1.3151"/>
  <ellipse cx="96.013" cy="284.36" rx="26.301" ry="26.301"/>
  <ellipse cx="96.013" cy="284.36" rx="23.014" ry="23.013" fill="#fff"/>
  <ellipse cx="220.81" cy="284.36" rx="47.33" ry="47.342" fill="#fff" stroke="#000" stroke-width="1.3149"/>
  <ellipse cx="220.81" cy="284.36" rx="26.294" ry="26.301"/>
  <ellipse cx="220.81" cy="284.36" rx="23.008" ry="23.013" fill="#fff"/>
  <ellipse cx="345.61" cy="284.36" rx="47.33" ry="47.342" fill="#fff" stroke="#000" stroke-width="1.3149"/>
  <ellipse cx="345.61" cy="284.36" rx="26.294" ry="26.301"/>
  <ellipse cx="345.61" cy="284.36" rx="23.008" ry="23.013" fill="#fff"/>
  <ellipse cx="470.41" cy="284.36" rx="47.33" ry="47.342" fill="#fff" stroke="#000" stroke-width="1.3149"/>
  <ellipse cx="470.41" cy="284.36" rx="26.294" ry="26.301"/>
  <ellipse cx="470.41" cy="284.36" rx="23.008" ry="23.013" fill="#fff"/>
  <ellipse cx="595.2" cy="284.36" rx="47.33" ry="47.342" fill="#fff" stroke="#000" stroke-width="1.3149"/>
  <ellipse cx="595.2" cy="284.36" rx="26.294" ry="26.301"/>
  <ellipse cx="595.2" cy="284.36" rx="23.008" ry="23.013" fill="#fff"/>
  <ellipse cx="720" cy="284.36" rx="47.33" ry="47.342" fill="#fff" stroke="#000" stroke-width="1.3149"/>
  <ellipse cx="720" cy="284.36" rx="26.294" ry="26.301"/>
  <ellipse cx="720" cy="284.36" rx="23.008" ry="23.013" fill="#fff"/>
  <ellipse cx="95.987" cy="476.36" rx="47.33" ry="47.342" fill="#666" stroke="#000" stroke-width="1.3149"/>
  <ellipse cx="95.987" cy="476.36" rx="26.294" ry="26.301" fill="#fff"/>
  <ellipse cx="95.987" cy="476.36" rx="23.008" ry="23.013" fill="#666"/>
  <ellipse cx="220.79" cy="476.36" rx="47.33" ry="47.342" fill="#666" stroke="#000" stroke-width="1.3149"/>
  <ellipse cx="220.79" cy="476.36" rx="26.294" ry="26.301" fill="#fff"/>
  <ellipse cx="220.79" cy="476.36" rx="23.008" ry="23.013" fill="#666"/>
  <ellipse cx="345.59" cy="476.36" rx="47.33" ry="47.342" fill="#666" stroke="#000" stroke-width="1.3149"/>
  <ellipse cx="345.59" cy="476.36" rx="26.294" ry="26.301" fill="#fff"/>
  <ellipse cx="345.59" cy="476.36" rx="23.008" ry="23.013" fill="#666"/>
  <ellipse cx="470.39" cy="476.36" rx="47.33" ry="47.342" fill="#666" stroke="#000" stroke-width="1.3149"/>
  <ellipse cx="470.39" cy="476.36" rx="26.294" ry="26.301" fill="#fff"/>
  <ellipse cx="470.39" cy="476.36" rx="23.008" ry="23.013" fill="#666"/>
  <ellipse cx="595.19" cy="476.36" rx="47.33" ry="47.342" fill="#666" stroke="#000" stroke-width="1.3149"/>
  <ellipse cx="595.19" cy="476.36" rx="26.294" ry="26.301" fill="#fff"/>
  <ellipse cx="595.19" cy="476.36" rx="23.008" ry="23.013" fill="#666"/>
  <ellipse cx="719.99" cy="476.36" rx="47.33" ry="47.342" fill="#666" stroke="#000" stroke-width="1.3149"/>
  <ellipse cx="719.99" cy="476.36" rx="26.294" ry="26.301" fill="#fff"/>
  <ellipse cx="719.99" cy="476.36" rx="23.008" ry="23.013" fill="#666"/>
  <ellipse cx="96" cy="668.36" rx="47.33" ry="47.342" fill="#666" stroke="#000" stroke-width="1.3149"/>
  <ellipse cx="96" cy="668.36" rx="26.294" ry="26.301" fill="#fff"/>
  <ellipse cx="96" cy="668.36" rx="23.008" ry="23.013" fill="#666"/>
  <ellipse cx="220.8" cy="668.36" rx="47.33" ry="47.342" fill="#666" stroke="#000" stroke-width="1.3149"/>
  <ellipse cx="220.8" cy="668.36" rx="26.294" ry="26.301" fill="#fff"/>
  <ellipse cx="220.8" cy="668.36" rx="23.008" ry="23.013" fill="#666"/>
  <ellipse cx="345.6" cy="668.36" rx="47.33" ry="47.342" fill="#666" stroke="#000" stroke-width="1.3149"/>
  <ellipse cx="345.6" cy="668.36" rx="26.294" ry="26.301" fill="#fff"/>
  <ellipse cx="345.6" cy="668.36" rx="23.008" ry="23.013" fill="#666"/>
  <ellipse cx="470.4" cy="668.36" rx="47.33" ry="47.342" fill="#666" stroke="#000" stroke-width="1.3149"/>
  <ellipse cx="470.4" cy="668.36" rx="26.294" ry="26.301" fill="#fff"/>
  <ellipse cx="470.4" cy="668.36" rx="23.008" ry="23.013" fill="#666"/>
  <ellipse cx="595.2" cy="668.36" rx="47.33" ry="47.342" fill="#666" stroke="#000" stroke-width="1.3149"/>
  <ellipse cx="595.2" cy="668.36" rx="26.294" ry="26.301" fill="#fff"/>
  <ellipse cx="595.2" cy="668.36" rx="23.008" ry="23.013" fill="#666"/>
  <ellipse cx="720" cy="668.36" rx="47.33" ry="47.342" fill="#666" stroke="#000" stroke-width="1.3149"/>
  <ellipse cx="720" cy="668.36" rx="26.294" ry="26.301" fill="#fff"/>
  <ellipse cx="720" cy="668.36" rx="23.008" ry="23.013" fill="#666"/>
 </g>
</svg>
