<?xml version="1.0" encoding="UTF-8"?>
<!-- Created with Inkscape (http://www.inkscape.org/) -->
<svg width="8.5in" height="11in" version="1.1" xmlns="http://www.w3.org/2000/svg">
 <rect y="-3.5477e-8" width="816" height="1056" fill="#fff"/>
 <g transform="matrix(1.0003 0 0 1 47.987 48)">
  <ellipse cx="48" cy="48" rx="47.33" ry="47.342" fill="#fff" stroke="#000" stroke-width="1.3149"/>
  <ellipse cx="48" cy="48" rx="26.294" ry="26.301"/>
  <ellipse cx="48" cy="48" rx="23.008" ry="23.013" fill="#fff"/>
  <ellipse cx="48" cy="48" rx="16.434" ry="16.438"/>
 </g>
 <g transform="translate(172.8 48)">
  <ellipse cx="48" cy="48" rx="47.33" ry="47.342" fill="#fff" stroke="#000" stroke-width="1.3149"/>
  <ellipse cx="48" cy="48" rx="26.294" ry="26.301"/>
  <ellipse cx="48" cy="48" rx="23.008" ry="23.013" fill="#fff"/>
  <ellipse cx="48" cy="48" rx="16.434" ry="16.438"/>
 </g>
 <g transform="translate(297.59 48)">
  <ellipse cx="48" cy="48" rx="47.33" ry="47.342" fill="#fff" stroke="#000" stroke-width="1.3149"/>
  <ellipse cx="48" cy="48" rx="26.294" ry="26.301"/>
  <ellipse cx="48" cy="48" rx="23.008" ry="23.013" fill="#fff"/>
  <ellipse cx="48" cy="48" rx="16.434" ry="16.438"/>
 </g>
 <g transform="translate(422.39 48)">
  <ellipse cx="48" cy="48" rx="47.33" ry="47.342" fill="#fff" stroke="#000" stroke-width="1.3149"/>
  <ellipse cx="48" cy="48" rx="26.294" ry="26.301"/>
  <ellipse cx="48" cy="48" rx="23.008" ry="23.013" fill="#fff"/>
  <ellipse cx="48" cy="48" rx="16.434" ry="16.438"/>
 </g>
 <g transform="translate(547.19 48)">
  <ellipse cx="48" cy="48" rx="47.33" ry="47.342" fill="#fff" stroke="#000" stroke-width="1.3149"/>
  <ellipse cx="48" cy="48" rx="26.294" ry="26.301"/>
  <ellipse cx="48" cy="48" rx="23.008" ry="23.013" fill="#fff"/>
  <ellipse cx="48" cy="48" rx="16.434" ry="16.438"/>
 </g>
 <g transform="translate(671.99 48)">
  <ellipse cx="48" cy="48" rx="47.33" ry="47.342" fill="#fff" stroke="#000" stroke-width="1.3149"/>
  <ellipse cx="48" cy="48" rx="26.294" ry="26.301"/>
  <ellipse cx="48" cy="48" rx="23.008" ry="23.013" fill="#fff"/>
  <ellipse cx="48" cy="48" rx="16.434" ry="16.438"/>
 </g>
 <g transform="matrix(1.0003 0 0 1 48 240)">
  <ellipse cx="48" cy="48" rx="47.33" ry="47.342" fill="#fff" stroke="#000" stroke-width="1.3149"/>
  <ellipse cx="48" cy="48" rx="26.294" ry="26.301"/>
  <ellipse cx="48" cy="48" rx="23.008" ry="23.013" fill="#fff"/>
  <ellipse cx="48" cy="48" rx="16.434" ry="16.438"/>
 </g>
 <g transform="matrix(1.0003 0 0 1 47.987 816)">
  <ellipse cx="48" cy="48" rx="47.33" ry="47.342" fill="#fff" stroke="#000" stroke-width="1.3149"/>
  <ellipse cx="48" cy="48" rx="26.294" ry="26.301"/>
  <ellipse cx="48" cy="48" rx="23.008" ry="23.013" fill="#fff"/>
  <ellipse cx="48" cy="48" rx="16.434" ry="16.438"/>
 </g>
 <g transform="translate(172.81 240)">
  <ellipse cx="48" cy="48" rx="47.33" ry="47.342" fill="#fff" stroke="#000" stroke-width="1.3149"/>
  <ellipse cx="48" cy="48" rx="26.294" ry="26.301"/>
  <ellipse cx="48" cy="48" rx="23.008" ry="23.013" fill="#fff"/>
  <ellipse cx="48" cy="48" rx="16.434" ry="16.438"/>
 </g>
 <g transform="translate(297.61 240)">
  <ellipse cx="48" cy="48" rx="47.33" ry="47.342" fill="#fff" stroke="#000" stroke-width="1.3149"/>
  <ellipse cx="48" cy="48" rx="26.294" ry="26.301"/>
  <ellipse cx="48" cy="48" rx="23.008" ry="23.013" fill="#fff"/>
  <ellipse cx="48" cy="48" rx="16.434" ry="16.438"/>
 </g>
 <g transform="translate(422.41 240)">
  <ellipse cx="48" cy="48" rx="47.33" ry="47.342" fill="#fff" stroke="#000" stroke-width="1.3149"/>
  <ellipse cx="48" cy="48" rx="26.294" ry="26.301"/>
  <ellipse cx="48" cy="48" rx="23.008" ry="23.013" fill="#fff"/>
  <ellipse cx="48" cy="48" rx="16.434" ry="16.438"/>
 </g>
 <g transform="translate(547.2 240)">
  <ellipse cx="48" cy="48" rx="47.33" ry="47.342" fill="#fff" stroke="#000" stroke-width="1.3149"/>
  <ellipse cx="48" cy="48" rx="26.294" ry="26.301"/>
  <ellipse cx="48" cy="48" rx="23.008" ry="23.013" fill="#fff"/>
  <ellipse cx="48" cy="48" rx="16.434" ry="16.438"/>
 </g>
 <g transform="translate(672 240)">
  <ellipse cx="48" cy="48" rx="47.33" ry="47.342" fill="#fff" stroke="#000" stroke-width="1.3149"/>
  <ellipse cx="48" cy="48" rx="26.294" ry="26.301"/>
  <ellipse cx="48" cy="48" rx="23.008" ry="23.013" fill="#fff"/>
  <ellipse cx="48" cy="48" rx="16.434" ry="16.438"/>
 </g>
 <g transform="translate(47.987 432)">
  <ellipse cx="48" cy="48" rx="47.33" ry="47.342" fill="#666" stroke="#000" stroke-width="1.3149"/>
  <ellipse cx="48" cy="48" rx="26.294" ry="26.301" fill="#fff"/>
  <ellipse cx="48" cy="48" rx="23.008" ry="23.013" fill="#666"/>
  <ellipse cx="48" cy="48" rx="16.434" ry="16.438" fill="#fff"/>
 </g>
 <g transform="translate(172.79 432)">
  <ellipse cx="48" cy="48" rx="47.33" ry="47.342" fill="#666" stroke="#000" stroke-width="1.3149"/>
  <ellipse cx="48" cy="48" rx="26.294" ry="26.301" fill="#fff"/>
  <ellipse cx="48" cy="48" rx="23.008" ry="23.013" fill="#666"/>
  <ellipse cx="48" cy="48" rx="16.434" ry="16.438" fill="#fff"/>
 </g>
 <g transform="translate(297.59 432)">
  <ellipse cx="48" cy="48" rx="47.33" ry="47.342" fill="#666" stroke="#000" stroke-width="1.3149"/>
  <ellipse cx="48" cy="48" rx="26.294" ry="26.301" fill="#fff"/>
  <ellipse cx="48" cy="48" rx="23.008" ry="23.013" fill="#666"/>
  <ellipse cx="48" cy="48" rx="16.434" ry="16.438" fill="#fff"/>
 </g>
 <g transform="translate(422.39 432)">
  <ellipse cx="48" cy="48" rx="47.33" ry="47.342" fill="#666" stroke="#000" stroke-width="1.3149"/>
  <ellipse cx="48" cy="48" rx="26.294" ry="26.301" fill="#fff"/>
  <ellipse cx="48" cy="48" rx="23.008" ry="23.013" fill="#666"/>
  <ellipse cx="48" cy="48" rx="16.434" ry="16.438" fill="#fff"/>
 </g>
 <g transform="translate(547.19 432)">
  <ellipse cx="48" cy="48" rx="47.33" ry="47.342" fill="#666" stroke="#000" stroke-width="1.3149"/>
  <ellipse cx="48" cy="48" rx="26.294" ry="26.301" fill="#fff"/>
  <ellipse cx="48" cy="48" rx="23.008" ry="23.013" fill="#666"/>
  <ellipse cx="48" cy="48" rx="16.434" ry="16.438" fill="#fff"/>
 </g>
 <g transform="translate(671.99 432)">
  <ellipse cx="48" cy="48" rx="47.33" ry="47.342" fill="#666" stroke="#000" stroke-width="1.3149"/>
  <ellipse cx="48" cy="48" rx="26.294" ry="26.301" fill="#fff"/>
  <ellipse cx="48" cy="48" rx="23.008" ry="23.013" fill="#666"/>
  <ellipse cx="48" cy="48" rx="16.434" ry="16.438" fill="#fff"/>
 </g>
 <g transform="translate(48 624)">
  <ellipse cx="48" cy="48" rx="47.33" ry="47.342" fill="#666" stroke="#000" stroke-width="1.3149"/>
  <ellipse cx="48" cy="48" rx="26.294" ry="26.301" fill="#fff"/>
  <ellipse cx="48" cy="48" rx="23.008" ry="23.013" fill="#666"/>
  <ellipse cx="48" cy="48" rx="16.434" ry="16.438" fill="#fff"/>
 </g>
 <g transform="translate(172.8 624)">
  <ellipse cx="48" cy="48" rx="47.33" ry="47.342" fill="#666" stroke="#000" stroke-width="1.3149"/>
  <ellipse cx="48" cy="48" rx="26.294" ry="26.301" fill="#fff"/>
  <ellipse cx="48" cy="48" rx="23.008" ry="23.013" fill="#666"/>
  <ellipse cx="48" cy="48" rx="16.434" ry="16.438" fill="#fff"/>
 </g>
 <g transform="translate(297.6 624)">
  <ellipse cx="48" cy="48" rx="47.33" ry="47.342" fill="#666" stroke="#000" stroke-width="1.3149"/>
  <ellipse cx="48" cy="48" rx="26.294" ry="26.301" fill="#fff"/>
  <ellipse cx="48" cy="48" rx="23.008" ry="23.013" fill="#666"/>
  <ellipse cx="48" cy="48" rx="16.434" ry="16.438" fill="#fff"/>
 </g>
 <g transform="translate(422.4 624)">
  <ellipse cx="48" cy="48" rx="47.33" ry="47.342" fill="#666" stroke="#000" stroke-width="1.3149"/>
  <ellipse cx="48" cy="48" rx="26.294" ry="26.301" fill="#fff"/>
  <ellipse cx="48" cy="48" rx="23.008" ry="23.013" fill="#666"/>
  <ellipse cx="48" cy="48" rx="16.434" ry="16.438" fill="#fff"/>
 </g>
 <g transform="translate(547.2 624)">
  <ellipse cx="48" cy="48" rx="47.33" ry="47.342" fill="#666" stroke="#000" stroke-width="1.3149"/>
  <ellipse cx="48" cy="48" rx="26.294" ry="26.301" fill="#fff"/>
  <ellipse cx="48" cy="48" rx="23.008" ry="23.013" fill="#666"/>
  <ellipse cx="48" cy="48" rx="16.434" ry="16.438" fill="#fff"/>
 </g>
 <g transform="translate(672 624)">
  <ellipse cx="48" cy="48" rx="47.33" ry="47.342" fill="#666" stroke="#000" stroke-width="1.3149"/>
  <ellipse cx="48" cy="48" rx="26.294" ry="26.301" fill="#fff"/>
  <ellipse cx="48" cy="48" rx="23.008" ry="23.013" fill="#666"/>
  <ellipse cx="48" cy="48" rx="16.434" ry="16.438" fill="#fff"/>
 </g>
 <g transform="translate(297.6 816)">
  <ellipse cx="48" cy="48" rx="47.33" ry="47.342" fill="#666" stroke="#000" stroke-width="1.3149"/>
  <ellipse cx="48" cy="48" rx="26.294" ry="26.301" fill="#fff"/>
  <ellipse cx="48" cy="48" rx="23.008" ry="23.013" fill="#666"/>
  <ellipse cx="48" cy="48" rx="16.434" ry="16.438" fill="#fff"/>
 </g>
 <g transform="translate(172.8 816)">
  <ellipse cx="48" cy="48" rx="47.33" ry="47.342" fill="#fafafa" stroke="#000" stroke-width="1.3149"/>
  <ellipse cx="48" cy="48" rx="26.294" ry="26.301"/>
  <ellipse cx="48" cy="48" rx="23.008" ry="23.013" fill="#fafafa"/>
  <ellipse cx="48" cy="48" rx="16.434" ry="16.438"/>
  <path d="m50.88 45.12h25.08v5.76h-25.08v25.44h-5.76v-25.44h-24.96v-5.76h24.96v-25.44h5.76z" fill="#fafafa"/>
 </g>
 <g transform="translate(422.4 816)">
  <ellipse cx="48" cy="48" rx="47.33" ry="47.342" fill="#666" stroke="#000" stroke-width="1.3149"/>
  <ellipse cx="48" cy="48" rx="26.294" ry="26.301" fill="#fff"/>
  <ellipse cx="48" cy="48" rx="23.008" ry="23.013" fill="#666"/>
  <ellipse cx="48" cy="48" rx="16.434" ry="16.438" fill="#fff"/>
  <path d="m50.88 45.12h25.08v5.76h-25.08v25.44h-5.76v-25.44h-24.96v-5.76h24.96v-25.44h5.76z" fill="#666"/>
 </g>
</svg>
