<?xml version="1.0" encoding="UTF-8"?>
<!-- Created with Inkscape (http://www.inkscape.org/) -->
<svg width="11in" height="8.5in" version="1.1" xml:space="preserve" xmlns="http://www.w3.org/2000/svg" xmlns:xlink="http://www.w3.org/1999/xlink"><rect width="1056" height="816" fill="#fff"/><g stroke="#000" stroke-width="1.1412"><rect x="144.57" y="24.571" width="109.55" height="109.55" fill="#d4d4d4" fill-rule="evenodd"/><rect x="254.12" y="24.571" width="109.55" height="109.55" fill="none"/><rect x="363.67" y="24.571" width="109.55" height="109.55" fill="#d4d4d4" fill-rule="evenodd"/><rect x="473.22" y="24.571" width="109.55" height="109.55" fill="none"/><rect x="582.78" y="24.571" width="109.55" height="109.55" fill="#d4d4d4" fill-rule="evenodd"/><rect x="692.33" y="24.571" width="109.55" height="109.55" fill="none"/><rect x="801.88" y="24.571" width="109.55" height="109.55" fill="#d4d4d4" fill-rule="evenodd"/><rect x="144.57" y="134.12" width="109.55" height="109.55" fill="none"/><rect x="254.12" y="134.12" width="109.55" height="109.55" fill="#d4d4d4" fill-rule="evenodd"/><rect x="363.67" y="134.12" width="109.55" height="109.55" fill="none"/><rect x="473.22" y="134.12" width="109.55" height="109.55" fill="#d4d4d4" fill-rule="evenodd"/><rect x="582.78" y="134.12" width="109.55" height="109.55" fill="none"/><rect x="692.33" y="134.12" width="109.55" height="109.55" fill="#d4d4d4" fill-rule="evenodd"/><rect x="801.88" y="134.12" width="109.55" height="109.55" fill="none"/><rect x="144.57" y="243.67" width="109.55" height="109.55" fill="#d4d4d4" fill-rule="evenodd"/><rect x="254.12" y="243.67" width="109.55" height="109.55" fill="none"/><rect x="363.67" y="243.67" width="109.55" height="109.55" fill="#d4d4d4" fill-rule="evenodd"/><rect x="473.22" y="243.67" width="109.55" height="109.55" fill="none"/><rect x="582.78" y="243.67" width="109.55" height="109.55" fill="#d4d4d4" fill-rule="evenodd"/><rect x="692.33" y="243.67" width="109.55" height="109.55" fill="none"/><rect x="801.88" y="243.67" width="109.55" height="109.55" fill="#d4d4d4" fill-rule="evenodd"/><rect x="144.57" y="353.22" width="109.55" height="109.55" fill="none"/><rect x="254.12" y="353.22" width="109.55" height="109.55" fill="#d4d4d4" fill-rule="evenodd"/><rect x="363.67" y="353.22" width="109.55" height="109.55" fill="none"/><rect x="473.22" y="353.22" width="109.55" height="109.55" fill="#d4d4d4" fill-rule="evenodd"/><rect x="582.78" y="353.22" width="109.55" height="109.55" fill="none"/><rect x="692.33" y="353.22" width="109.55" height="109.55" fill="#d4d4d4" fill-rule="evenodd"/><rect x="801.88" y="353.22" width="109.55" height="109.55" fill="none"/><rect x="144.57" y="462.78" width="109.55" height="109.55" fill="#d4d4d4" fill-rule="evenodd"/><rect x="254.12" y="462.78" width="109.55" height="109.55" fill="none"/><rect x="363.67" y="462.78" width="109.55" height="109.55" fill="#d4d4d4" fill-rule="evenodd"/><rect x="473.22" y="462.78" width="109.55" height="109.55" fill="none"/><rect x="582.78" y="462.78" width="109.55" height="109.55" fill="#d4d4d4" fill-rule="evenodd"/><rect x="692.33" y="462.78" width="109.55" height="109.55" fill="none"/><rect x="801.88" y="462.78" width="109.55" height="109.55" fill="#d4d4d4" fill-rule="evenodd"/><rect x="144.57" y="572.33" width="109.55" height="109.55" fill="none"/><rect x="254.12" y="572.33" width="109.55" height="109.55" fill="#d4d4d4" fill-rule="evenodd"/><rect x="363.67" y="572.33" width="109.55" height="109.55" fill="none"/><rect x="473.22" y="572.33" width="109.55" height="109.55" fill="#d4d4d4" fill-rule="evenodd"/><rect x="582.78" y="572.33" width="109.55" height="109.55" fill="none"/><rect x="692.33" y="572.33" width="109.55" height="109.55" fill="#d4d4d4" fill-rule="evenodd"/><rect x="801.88" y="572.33" width="109.55" height="109.55" fill="none"/><rect x="144.57" y="681.88" width="109.55" height="109.55" fill="#d4d4d4" fill-rule="evenodd"/><rect x="254.12" y="681.88" width="109.55" height="109.55" fill="none"/><rect x="363.67" y="681.88" width="109.55" height="109.55" fill="#d4d4d4" fill-rule="evenodd"/><rect x="473.22" y="681.88" width="109.55" height="109.55" fill="none"/><rect x="582.78" y="681.88" width="109.55" height="109.55" fill="#d4d4d4" fill-rule="evenodd"/><rect x="692.33" y="681.88" width="109.55" height="109.55" fill="none"/><rect x="801.88" y="681.88" width="109.55" height="109.55" fill="#d4d4d4" fill-rule="evenodd"/></g><image x="480" y="688.65" width="96" height="96" preserveAspectRatio="none" xlink:href="file:///home/jaerrib/Github/oferhlyp/assets/svg/token-light-king-full.svg"/><image x="370.45" y="688.65" width="96" height="96" preserveAspectRatio="none" xlink:href="file:///home/jaerrib/Github/oferhlyp/assets/svg/token-light-full.svg"/><image x="260.9" y="688.65" width="96" height="96" preserveAspectRatio="none" xlink:href="file:///home/jaerrib/Github/oferhlyp/assets/svg/token-light-full.svg"/><image x="151.35" y="688.65" width="96" height="96" preserveAspectRatio="none" xlink:href="file:///home/jaerrib/Github/oferhlyp/assets/svg/token-light-full.svg"/><image x="151.35" y="579.1" width="96" height="96" preserveAspectRatio="none" xlink:href="file:///home/jaerrib/Github/oferhlyp/assets/svg/token-light-full.svg"/><image x="260.9" y="579.1" width="96" height="96" preserveAspectRatio="none" xlink:href="file:///home/jaerrib/Github/oferhlyp/assets/svg/token-light-full.svg"/><image x="370.45" y="579.1" width="96" height="96" preserveAspectRatio="none" xlink:href="file:///home/jaerrib/Github/oferhlyp/assets/svg/token-light-full.svg"/><image x="480" y="579.1" width="96" height="96" preserveAspectRatio="none" xlink:href="file:///home/jaerrib/Github/oferhlyp/assets/svg/token-light-full.svg"/><image x="589.55" y="579.1" width="96" height="96" preserveAspectRatio="none" xlink:href="file:///home/jaerrib/Github/oferhlyp/assets/svg/token-light-full.svg"/><image x="699.1" y="579.1" width="96" height="96" preserveAspectRatio="none" xlink:href="file:///home/jaerrib/Github/oferhlyp/assets/svg/token-light-full.svg"/><image x="808.65" y="579.1" width="96" height="96" preserveAspectRatio="none" xlink:href="file:///home/jaerrib/Github/oferhlyp/assets/svg/token-light-full.svg"/><image x="589.55" y="688.65" width="96" height="96" preserveAspectRatio="none" xlink:href="file:///home/jaerrib/Github/oferhlyp/assets/svg/token-light-full.svg"/><image x="699.1" y="688.65" width="96" height="96" preserveAspectRatio="none" xlink:href="file:///home/jaerrib/Github/oferhlyp/assets/svg/token-light-full.svg"/><image x="808.65" y="688.65" width="96" height="96" preserveAspectRatio="none" xlink:href="file:///home/jaerrib/Github/oferhlyp/assets/svg/token-light-full.svg"/><image x="480" y="31.346" width="96" height="96" preserveAspectRatio="none" xlink:href="file:///home/jaerrib/Github/oferhlyp/assets/svg/token-dark-king-full.svg"/><image x="151.35" y="31.346" width="96" height="96" preserveAspectRatio="none" xlink:href="file:///home/jaerrib/Github/oferhlyp/assets/svg/token-dark-full.svg"/><image x="151.35" y="140.9" width="96" height="96" preserveAspectRatio="none" xlink:href="file:///home/jaerrib/Github/oferhlyp/assets/svg/token-dark-full.svg"/><image x="260.9" y="140.9" width="96" height="96" preserveAspectRatio="none" xlink:href="file:///home/jaerrib/Github/oferhlyp/assets/svg/token-dark-full.svg"/><image x="370.45" y="140.9" width="96" height="96" preserveAspectRatio="none" xlink:href="file:///home/jaerrib/Github/oferhlyp/assets/svg/token-dark-full.svg"/><image x="480.01" y="140.9" width="96" height="96" preserveAspectRatio="none" xlink:href="file:///home/jaerrib/Github/oferhlyp/assets/svg/token-dark-full.svg"/><image x="589.56" y="140.9" width="96" height="96" preserveAspectRatio="none" xlink:href="file:///home/jaerrib/Github/oferhlyp/assets/svg/token-dark-full.svg"/><image x="699.11" y="140.9" width="96" height="96" preserveAspectRatio="none" xlink:href="file:///home/jaerrib/Github/oferhlyp/assets/svg/token-dark-full.svg"/><image x="808.65" y="140.9" width="96" height="96" preserveAspectRatio="none" xlink:href="file:///home/jaerrib/Github/oferhlyp/assets/svg/token-dark-full.svg"/><image x="260.9" y="31.346" width="96" height="96" preserveAspectRatio="none" xlink:href="file:///home/jaerrib/Github/oferhlyp/assets/svg/token-dark-full.svg"/><image x="370.45" y="31.346" width="96" height="96" preserveAspectRatio="none" xlink:href="file:///home/jaerrib/Github/oferhlyp/assets/svg/token-dark-full.svg"/><image x="589.55" y="31.346" width="96" height="96" preserveAspectRatio="none" xlink:href="file:///home/jaerrib/Github/oferhlyp/assets/svg/token-dark-full.svg"/><image x="699.1" y="31.346" width="96" height="96" preserveAspectRatio="none" xlink:href="file:///home/jaerrib/Github/oferhlyp/assets/svg/token-dark-full.svg"/><image x="808.65" y="31.346" width="96" height="96" preserveAspectRatio="none" xlink:href="file:///home/jaerrib/Github/oferhlyp/assets/svg/token-dark-full.svg"/></svg>
