<?xml version="1.0" encoding="UTF-8"?>
<!-- Generator: Adobe Illustrator 15.0.0, SVG Export Plug-In . SVG Version: 6.00 Build 0)  -->
<svg width="1in" height="1in" enable-background="new 0 0 90 90" version="1.1" viewBox="0 0 96 96" xml:space="preserve" xmlns="http://www.w3.org/2000/svg"><ellipse cx="48" cy="48" rx="47.33" ry="47.342" fill="#4d4d4d" stroke="#000" stroke-width="1.3149"/><text x="47.800991" y="46.142262" fill="#000000" font-family="sans-serif" font-size="40px" style="line-height:1.25" xml:space="preserve"><tspan x="47.800991" y="46.142262"/></text><g transform="translate(89.734 -10)" fill="#fafafa"><g transform="translate(-36.321 48.105)" aria-label="m"><path d="m-19.961 4.5826 12.125-12.125-12.125-12.156zm0 5.2188v20.813l-1.875 4.5938-1.8438-4.5938q0-14.656 0-29.344 0.03125-14.687 0-29.375 4.4375 4.5938 9.1562 9 4.7187 4.375 9.3125 8.9375l18.063-17.938q0 14.688 0 29.375 0 14.688 0 29.344l-1.8438 4.5938-1.8438-4.5938v-21.156l-14.375-14.406zm17.375-17.344 11.75 11.75v-23.531z" fill="#fafafa"/></g><g transform="rotate(180 -23.574 33.948)" aria-label="m"><path d="m-19.961 4.5826 12.125-12.125-12.125-12.156zm0 5.2188v20.813l-1.875 4.5938-1.8438-4.5938q0-14.656 0-29.344 0.03125-14.687 0-29.375 4.4375 4.5938 9.1562 9 4.7187 4.375 9.3125 8.9375l18.063-17.938q0 14.688 0 29.375 0 14.688 0 29.344l-1.8438 4.5938-1.8438-4.5938v-21.156l-14.375-14.406zm17.375-17.344 11.75 11.75v-23.531z" fill="#fafafa"/></g></g></svg>
