<?xml version="1.0" encoding="UTF-8"?>
<!-- Generator: Adobe Illustrator 15.0.0, SVG Export Plug-In . SVG Version: 6.00 Build 0)  -->
<svg width="1in" height="1in" enable-background="new 0 0 90 90" version="1.1" viewBox="0 0 96 96" xml:space="preserve" xmlns="http://www.w3.org/2000/svg"><ellipse cx="48" cy="48" rx="47.33" ry="47.342" fill="#fafafa" stroke="#000" stroke-width="1.3149"/><text x="47.800991" y="46.142262" fill="#000000" font-family="sans-serif" font-size="40px" style="line-height:1.25" xml:space="preserve"><tspan x="47.800991" y="46.142262"/></text><g aria-label="t"><path d="m48.016 10 20.375 20.375 2.1562 4.3438-4.6562-1.5312-16.031-16.375v52.375l-1.8438 4.5938-1.875-4.5938v-52.344l-16.031 16.344-4.6562 1.5625 2.1875-4.375 20.375-20.375z"/></g><g transform="scale(1,-1)" aria-label="t"><path d="m48.016-86 20.375 20.375 2.1562 4.3438-4.6562-1.5312-16.031-16.375v52.375l-1.8438 4.5938-1.875-4.5938v-52.344l-16.031 16.344-4.6562 1.5625 2.1875-4.375 20.375-20.375z"/></g></svg>
