<?xml version="1.0" encoding="UTF-8"?>
<!-- Created with Inkscape (http://www.inkscape.org/) -->
<svg width="8.5in" height="11in" version="1.1" xml:space="preserve" xmlns="http://www.w3.org/2000/svg" xmlns:xlink="http://www.w3.org/1999/xlink"><rect y="-3.5477e-8" width="816" height="1056" fill="#fff"/><image x="297.6" y="816" width="96" height="96" preserveAspectRatio="none" xlink:href="file:///home/jaerrib/Github/oferhlyp/assets/svg/token-dark-full.svg"/><image x="672" y="624" width="96" height="96" preserveAspectRatio="none" xlink:href="file:///home/jaerrib/Github/oferhlyp/assets/svg/token-dark-full.svg"/><image x="547.2" y="624" width="96" height="96" preserveAspectRatio="none" xlink:href="file:///home/jaerrib/Github/oferhlyp/assets/svg/token-dark-full.svg"/><image x="297.59" y="432" width="96" height="96" preserveAspectRatio="none" xlink:href="file:///home/jaerrib/Github/oferhlyp/assets/svg/token-dark-full.svg"/><image x="172.79" y="432" width="96" height="96" preserveAspectRatio="none" xlink:href="file:///home/jaerrib/Github/oferhlyp/assets/svg/token-dark-full.svg"/><image x="422.39" y="432" width="96" height="96" preserveAspectRatio="none" xlink:href="file:///home/jaerrib/Github/oferhlyp/assets/svg/token-dark-full.svg"/><image x="48" y="624" width="96" height="96" preserveAspectRatio="none" xlink:href="file:///home/jaerrib/Github/oferhlyp/assets/svg/token-dark-full.svg"/><image x="422.4" y="624" width="96" height="96" preserveAspectRatio="none" xlink:href="file:///home/jaerrib/Github/oferhlyp/assets/svg/token-dark-full.svg"/><image x="297.6" y="624" width="96" height="96" preserveAspectRatio="none" xlink:href="file:///home/jaerrib/Github/oferhlyp/assets/svg/token-dark-full.svg"/><image x="172.8" y="624" width="96" height="96" preserveAspectRatio="none" xlink:href="file:///home/jaerrib/Github/oferhlyp/assets/svg/token-dark-full.svg"/><image x="47.987" y="432" width="96" height="96" preserveAspectRatio="none" xlink:href="file:///home/jaerrib/Github/oferhlyp/assets/svg/token-dark-full.svg"/><g transform="matrix(1.0003 0 0 1 47.987 48)"><ellipse cx="48" cy="48" rx="47.33" ry="47.342" fill="#fff" stroke="#000" stroke-width="1.3149"/><ellipse cx="48" cy="48" rx="26.294" ry="26.301"/><ellipse cx="48" cy="48" rx="23.008" ry="23.013" fill="#fff"/><ellipse cx="48" cy="48" rx="16.434" ry="16.438"/></g><g transform="translate(172.8 48)"><ellipse cx="48" cy="48" rx="47.33" ry="47.342" fill="#fff" stroke="#000" stroke-width="1.3149"/><ellipse cx="48" cy="48" rx="26.294" ry="26.301"/><ellipse cx="48" cy="48" rx="23.008" ry="23.013" fill="#fff"/><ellipse cx="48" cy="48" rx="16.434" ry="16.438"/></g><g transform="translate(297.59 48)"><ellipse cx="48" cy="48" rx="47.33" ry="47.342" fill="#fff" stroke="#000" stroke-width="1.3149"/><ellipse cx="48" cy="48" rx="26.294" ry="26.301"/><ellipse cx="48" cy="48" rx="23.008" ry="23.013" fill="#fff"/><ellipse cx="48" cy="48" rx="16.434" ry="16.438"/></g><g transform="translate(422.39 48)"><ellipse cx="48" cy="48" rx="47.33" ry="47.342" fill="#fff" stroke="#000" stroke-width="1.3149"/><ellipse cx="48" cy="48" rx="26.294" ry="26.301"/><ellipse cx="48" cy="48" rx="23.008" ry="23.013" fill="#fff"/><ellipse cx="48" cy="48" rx="16.434" ry="16.438"/></g><g transform="translate(547.19 48)"><ellipse cx="48" cy="48" rx="47.33" ry="47.342" fill="#fff" stroke="#000" stroke-width="1.3149"/><ellipse cx="48" cy="48" rx="26.294" ry="26.301"/><ellipse cx="48" cy="48" rx="23.008" ry="23.013" fill="#fff"/><ellipse cx="48" cy="48" rx="16.434" ry="16.438"/></g><g transform="translate(671.99 48)"><ellipse cx="48" cy="48" rx="47.33" ry="47.342" fill="#fff" stroke="#000" stroke-width="1.3149"/><ellipse cx="48" cy="48" rx="26.294" ry="26.301"/><ellipse cx="48" cy="48" rx="23.008" ry="23.013" fill="#fff"/><ellipse cx="48" cy="48" rx="16.434" ry="16.438"/></g><g transform="matrix(1.0003 0 0 1 48 240)"><ellipse cx="48" cy="48" rx="47.33" ry="47.342" fill="#fff" stroke="#000" stroke-width="1.3149"/><ellipse cx="48" cy="48" rx="26.294" ry="26.301"/><ellipse cx="48" cy="48" rx="23.008" ry="23.013" fill="#fff"/><ellipse cx="48" cy="48" rx="16.434" ry="16.438"/></g><g transform="matrix(1.0003 0 0 1 47.987 816)"><ellipse cx="48" cy="48" rx="47.33" ry="47.342" fill="#fff" stroke="#000" stroke-width="1.3149"/><ellipse cx="48" cy="48" rx="26.294" ry="26.301"/><ellipse cx="48" cy="48" rx="23.008" ry="23.013" fill="#fff"/><ellipse cx="48" cy="48" rx="16.434" ry="16.438"/></g><g transform="translate(172.81 240)"><ellipse cx="48" cy="48" rx="47.33" ry="47.342" fill="#fff" stroke="#000" stroke-width="1.3149"/><ellipse cx="48" cy="48" rx="26.294" ry="26.301"/><ellipse cx="48" cy="48" rx="23.008" ry="23.013" fill="#fff"/><ellipse cx="48" cy="48" rx="16.434" ry="16.438"/></g><g transform="translate(297.61 240)"><ellipse cx="48" cy="48" rx="47.33" ry="47.342" fill="#fff" stroke="#000" stroke-width="1.3149"/><ellipse cx="48" cy="48" rx="26.294" ry="26.301"/><ellipse cx="48" cy="48" rx="23.008" ry="23.013" fill="#fff"/><ellipse cx="48" cy="48" rx="16.434" ry="16.438"/></g><g transform="translate(422.41 240)"><ellipse cx="48" cy="48" rx="47.33" ry="47.342" fill="#fff" stroke="#000" stroke-width="1.3149"/><ellipse cx="48" cy="48" rx="26.294" ry="26.301"/><ellipse cx="48" cy="48" rx="23.008" ry="23.013" fill="#fff"/><ellipse cx="48" cy="48" rx="16.434" ry="16.438"/></g><g transform="translate(547.2 240)"><ellipse cx="48" cy="48" rx="47.33" ry="47.342" fill="#fff" stroke="#000" stroke-width="1.3149"/><ellipse cx="48" cy="48" rx="26.294" ry="26.301"/><ellipse cx="48" cy="48" rx="23.008" ry="23.013" fill="#fff"/><ellipse cx="48" cy="48" rx="16.434" ry="16.438"/></g><g transform="translate(672 240)"><ellipse cx="48" cy="48" rx="47.33" ry="47.342" fill="#fff" stroke="#000" stroke-width="1.3149"/><ellipse cx="48" cy="48" rx="26.294" ry="26.301"/><ellipse cx="48" cy="48" rx="23.008" ry="23.013" fill="#fff"/><ellipse cx="48" cy="48" rx="16.434" ry="16.438"/></g><image x="547.19" y="432" width="96" height="96" preserveAspectRatio="none" xlink:href="file:///home/jaerrib/Github/oferhlyp/assets/svg/token-dark-full.svg"/><image x="671.99" y="432" width="96" height="96" preserveAspectRatio="none" xlink:href="file:///home/jaerrib/Github/oferhlyp/assets/svg/token-dark-full.svg"/><image x="172.8" y="816" width="96" height="96" preserveAspectRatio="none" xlink:href="file:///home/jaerrib/Github/oferhlyp/assets/svg/token-light-king-full.svg"/><image x="422.4" y="816" width="96" height="96" preserveAspectRatio="none" xlink:href="file:///home/jaerrib/Github/oferhlyp/assets/svg/token-dark-king-full.svg"/><image x="48.014" y="240" width="96" height="96" preserveAspectRatio="none" xlink:href="file:///home/jaerrib/Github/oferhlyp/assets/svg/token-light-full.svg"/><image x="297.59" y="48" width="96" height="96" preserveAspectRatio="none" xlink:href="file:///home/jaerrib/Github/oferhlyp/assets/svg/token-light-full.svg"/><image x="671.99" y="48" width="96" height="96" preserveAspectRatio="none" xlink:href="file:///home/jaerrib/Github/oferhlyp/assets/svg/token-light-full.svg"/><image x="547.19" y="48" width="96" height="96" preserveAspectRatio="none" xlink:href="file:///home/jaerrib/Github/oferhlyp/assets/svg/token-light-full.svg"/><image x="672" y="240" width="96" height="96" preserveAspectRatio="none" xlink:href="file:///home/jaerrib/Github/oferhlyp/assets/svg/token-light-full.svg"/><image x="547.2" y="240" width="96" height="96" preserveAspectRatio="none" xlink:href="file:///home/jaerrib/Github/oferhlyp/assets/svg/token-light-full.svg"/><image x="422.41" y="240" width="96" height="96" preserveAspectRatio="none" xlink:href="file:///home/jaerrib/Github/oferhlyp/assets/svg/token-light-full.svg"/><image x="172.8" y="48" width="96" height="96" preserveAspectRatio="none" xlink:href="file:///home/jaerrib/Github/oferhlyp/assets/svg/token-light-full.svg"/><image x="422.39" y="48" width="96" height="96" preserveAspectRatio="none" xlink:href="file:///home/jaerrib/Github/oferhlyp/assets/svg/token-light-full.svg"/><image x="297.61" y="240" width="96" height="96" preserveAspectRatio="none" xlink:href="file:///home/jaerrib/Github/oferhlyp/assets/svg/token-light-full.svg"/><image x="172.81" y="240" width="96" height="96" preserveAspectRatio="none" xlink:href="file:///home/jaerrib/Github/oferhlyp/assets/svg/token-light-full.svg"/><image x="48.001" y="816" width="96" height="96" preserveAspectRatio="none" xlink:href="file:///home/jaerrib/Github/oferhlyp/assets/svg/token-light-full.svg"/><image x="48.001" y="48" width="96" height="96" preserveAspectRatio="none" xlink:href="file:///home/jaerrib/Github/oferhlyp/assets/svg/token-light-full.svg"/></svg>
